<svg version="1.1" viewBox="0.0 0.0 1057.0 653.0" fill="none" stroke="none" stroke-linecap="square" stroke-miterlimit="10" width="1057" height="653" xmlns:xlink="http://www.w3.org/1999/xlink" xmlns="http://www.w3.org/2000/svg"><path fill="#000000" d="M0 0L1057.0 0L1057.0 653.0L0 653.0L0 0Z" fill-rule="nonzero"/><path stroke="#cccccc" stroke-width="1.0" stroke-linecap="butt" d="M146.5 600.5L1024.5 600.5" fill-rule="nonzero"/><path stroke="#333333" stroke-width="1.0" stroke-linecap="butt" d="M146.5 492.5L1024.5 492.5" fill-rule="nonzero"/><path stroke="#333333" stroke-width="1.0" stroke-linecap="butt" d="M146.5 385.5L1024.5 385.5" fill-rule="nonzero"/><path stroke="#333333" stroke-width="1.0" stroke-linecap="butt" d="M146.5 277.5L1024.5 277.5" fill-rule="nonzero"/><path stroke="#333333" stroke-width="1.0" stroke-linecap="butt" d="M146.5 170.5L1024.5 170.5" fill-rule="nonzero"/><clipPath id="id_0"><path d="M146.65 170.18333L1024.35 170.18333L1024.35 600.35L146.65 600.35L146.65 170.18333Z" clip-rule="nonzero"/></clipPath><path stroke="#000000" stroke-width="2.0" stroke-linecap="butt" stroke-opacity="0.0" clip-path="url(#id_0)" d="M515.0 600.0L376.0 600.0L376.0 179.0C376.0 177.89543 376.89542 177.0 378.0 177.0L513.0 177.0C514.10455 177.0 515.0 177.89543 515.0 179.0Z" fill-rule="nonzero"/><path fill="#4285f4" clip-path="url(#id_0)" d="M515.0 600.0L376.0 600.0L376.0 179.0C376.0 177.89543 376.89542 177.0 378.0 177.0L513.0 177.0C514.10455 177.0 515.0 177.89543 515.0 179.0Z" fill-rule="nonzero"/><path stroke="#000000" stroke-width="2.0" stroke-linecap="butt" stroke-opacity="0.0" clip-path="url(#id_0)" d="M656.0 600.0L517.0 600.0L517.0 434.0C517.0 432.89542 517.89545 432.0 519.0 432.0L654.0 432.0C655.10455 432.0 656.0 432.89542 656.0 434.0Z" fill-rule="nonzero"/><path fill="#ea4335" clip-path="url(#id_0)" d="M656.0 600.0L517.0 600.0L517.0 434.0C517.0 432.89542 517.89545 432.0 519.0 432.0L654.0 432.0C655.10455 432.0 656.0 432.89542 656.0 434.0Z" fill-rule="nonzero"/><path stroke="#000000" stroke-width="2.0" stroke-linecap="butt" stroke-opacity="0.0" clip-path="url(#id_0)" d="M797.0 600.0L658.0 600.0L658.0 514.0C658.0 512.89545 658.89545 512.0 660.0 512.0L795.0 512.0C796.10455 512.0 797.0 512.89545 797.0 514.0Z" fill-rule="nonzero"/><path fill="#fbbc04" clip-path="url(#id_0)" d="M797.0 600.0L658.0 600.0L658.0 514.0C658.0 512.89545 658.89545 512.0 660.0 512.0L795.0 512.0C796.10455 512.0 797.0 512.89545 797.0 514.0Z" fill-rule="nonzero"/><path fill="#ffffff" d="M60.649975 541.95416L39.181225 541.95416L39.181225 534.5479Q39.181225 532.0479 39.4781 530.7354Q39.899975 528.89166 41.024975 527.57916Q42.462475 525.87604 44.69685 525.0479Q46.931225 524.20416 49.7906 524.20416Q52.243725 524.20416 54.13435 524.7823Q56.024975 525.3448 57.25935 526.2354Q58.493725 527.12604 59.212475 528.18854Q59.9156 529.25104 60.2906 530.75104Q60.649975 532.25104 60.649975 534.20416L60.649975 541.95416ZM58.118725 539.1104L58.118725 534.5323Q58.118725 532.4073 57.7281 531.20416Q57.32185 529.9854 56.6031 529.26666Q55.6031 528.25104 53.899975 527.68854Q52.181225 527.12604 49.743725 527.12604Q46.38435 527.12604 44.57185 528.2354Q42.75935 529.3448 42.149975 530.9229Q41.712475 532.06354 41.712475 534.5948L41.712475 539.1104L58.118725 539.1104ZM52.868725 521.26666Q48.556225 521.26666 46.462475 518.8604Q44.743725 516.8604 44.743725 513.9698Q44.743725 510.76666 46.8531 508.7354Q48.94685 506.68854 52.649975 506.68854Q55.649975 506.68854 57.38435 507.5948Q59.1031 508.50104 60.056225 510.2198Q61.00935 511.93854 61.00935 513.9698Q61.00935 517.2354 58.9156 519.25104Q56.806225 521.26666 52.868725 521.26666ZM52.868725 518.56354Q55.8531 518.56354 57.3531 517.26666Q58.837475 515.95416 58.837475 513.9698Q58.837475 512.01666 57.337475 510.7198Q55.837475 509.4073 52.7906 509.4073Q49.899975 509.4073 48.4156 510.7198Q46.931225 512.0323 46.931225 513.9698Q46.931225 515.95416 48.4156 517.26666Q49.88435 518.56354 52.868725 518.56354ZM54.94685 494.14166L55.2906 491.5479Q57.962475 491.9698 59.493725 493.7198Q61.00935 495.4698 61.00935 498.01666Q61.00935 501.2198 58.9156 503.1573Q56.82185 505.0948 52.931225 505.0948Q50.4156 505.0948 48.524975 504.26666Q46.63435 503.4229 45.69685 501.7198Q44.743725 500.01666 44.743725 498.00104Q44.743725 495.4698 46.024975 493.8604Q47.306225 492.25104 49.6656 491.7979L50.056225 494.3604Q48.493725 494.7198 47.712475 495.6573Q46.9156 496.57916 46.9156 497.9073Q46.9156 499.89166 48.337475 501.14166Q49.75935 502.39166 52.8531 502.39166Q55.993725 502.39166 57.4156 501.18854Q58.837475 499.9854 58.837475 498.0479Q58.837475 496.50104 57.88435 495.4698Q56.931225 494.4229 54.94685 494.14166ZM60.649975 489.26666L39.181225 489.26666L39.181225 486.64166L51.4156 486.64166L45.087475 480.39166L45.087475 476.9854L50.868725 482.93854L60.649975 476.37604L60.649975 479.64166L52.69685 484.7823L54.4781 486.64166L60.649975 486.64166L60.649975 489.26666ZM55.63435 463.64166L55.9781 460.9073Q58.368725 461.56354 59.69685 463.31354Q61.00935 465.0479 61.00935 467.75104Q61.00935 471.1729 58.899975 473.1729Q56.7906 475.1729 53.00935 475.1729Q49.07185 475.1729 46.9156 473.1573Q44.743725 471.12604 44.743725 467.9073Q44.743725 464.7823 46.868725 462.81354Q48.993725 460.82916 52.837475 460.82916Q53.07185 460.82916 53.5406 460.8448L53.5406 472.43854Q56.1031 472.2979 57.4781 471.00104Q58.837475 469.68854 58.837475 467.7354Q58.837475 466.2979 58.07185 465.26666Q57.306225 464.2354 55.63435 463.64166ZM51.38435 472.2979L51.38435 463.6104Q49.4156 463.7823 48.431225 464.6104Q46.9156 465.8604 46.9156 467.87604Q46.9156 469.68854 48.13435 470.9229Q49.337475 472.1573 51.38435 472.2979ZM60.649975 458.31354L45.087475 458.31354L45.087475 455.93854L47.44685 455.93854Q45.7906 455.0323 45.274975 454.26666Q44.743725 453.50104 44.743725 452.57916Q44.743725 451.2354 45.587475 449.8604L48.0406 450.76666Q47.462475 451.7354 47.462475 452.70416Q47.462475 453.57916 47.993725 454.26666Q48.50935 454.95416 49.431225 455.2354Q50.837475 455.68854 52.50935 455.68854L60.649975 455.68854L60.649975 458.31354ZM42.212475 440.26666L39.181225 440.26666L39.181225 437.64166L42.212475 437.64166L42.212475 440.26666ZM60.649975 440.26666L45.087475 440.26666L45.087475 437.64166L60.649975 437.64166L60.649975 440.26666ZM60.649975 433.2823L45.087475 433.2823L45.087475 430.9229L47.274975 430.9229Q46.13435 430.20416 45.44685 428.9854Q44.743725 427.76666 44.743725 426.2198Q44.743725 424.4854 45.462475 423.37604Q46.181225 422.26666 47.462475 421.81354Q44.743725 419.9698 44.743725 417.01666Q44.743725 414.70416 46.024975 413.45416Q47.306225 412.20416 49.9781 412.20416L60.649975 412.20416L60.649975 414.82916L50.8531 414.82916Q49.274975 414.82916 48.57185 415.0948Q47.868725 415.3448 47.44685 416.01666Q47.024975 416.68854 47.024975 417.5948Q47.024975 419.2354 48.118725 420.32916Q49.212475 421.4073 51.618725 421.4073L60.649975 421.4073L60.649975 424.0479L50.5406 424.0479Q48.7906 424.0479 47.9156 424.68854Q47.024975 425.32916 47.024975 426.7979Q47.024975 427.9073 47.618725 428.8604Q48.19685 429.7979 49.32185 430.2354Q50.44685 430.6573 52.57185 430.6573L60.649975 430.6573L60.649975 433.2823ZM58.7281 398.14166Q59.9781 399.5948 60.493725 400.95416Q61.00935 402.31354 61.00935 403.8604Q61.00935 406.4229 59.75935 407.81354Q58.493725 409.18854 56.5406 409.18854Q55.399975 409.18854 54.462475 408.6729Q53.50935 408.14166 52.94685 407.2979Q52.368725 406.45416 52.087475 405.4073Q51.868725 404.62604 51.681225 403.06354Q51.306225 399.8604 50.774975 398.3604Q50.2281 398.3448 50.087475 398.3448Q48.4781 398.3448 47.82185 399.0948Q46.931225 400.0948 46.931225 402.0948Q46.931225 403.95416 47.587475 404.8448Q48.2281 405.7198 49.88435 406.1573L49.524975 408.7354Q47.868725 408.37604 46.8531 407.57916Q45.837475 406.76666 45.2906 405.25104Q44.743725 403.7198 44.743725 401.70416Q44.743725 399.7198 45.212475 398.4854Q45.681225 397.2354 46.399975 396.6573Q47.1031 396.06354 48.181225 395.82916Q48.8531 395.68854 50.618725 395.68854L54.13435 395.68854Q57.806225 395.68854 58.7906 395.5323Q59.75935 395.3604 60.649975 394.8604L60.649975 397.6104Q59.82185 398.01666 58.7281 398.14166ZM52.837475 398.3604Q53.431225 399.7979 53.837475 402.6573Q54.07185 404.2823 54.368725 404.9698Q54.6656 405.64166 55.2281 406.01666Q55.7906 406.37604 56.4781 406.37604Q57.524975 406.37604 58.2281 405.57916Q58.931225 404.76666 58.931225 403.2354Q58.931225 401.70416 58.274975 400.5323Q57.6031 399.3448 56.44685 398.7823Q55.556225 398.3604 53.806225 398.3604L52.837475 398.3604ZM61.94685 392.76666L62.32185 390.20416Q63.50935 390.0479 64.05623 389.31354Q64.77498 388.32916 64.77498 386.64166Q64.77498 384.7979 64.0406 383.81354Q63.32185 382.81354 61.993725 382.45416Q61.19685 382.25104 58.618725 382.26666Q60.649975 384.00104 60.649975 386.57916Q60.649975 389.7823 58.337475 391.5479Q56.024975 393.2979 52.7906 393.2979Q50.556225 393.2979 48.681225 392.50104Q46.7906 391.68854 45.774975 390.1573Q44.743725 388.62604 44.743725 386.56354Q44.743725 383.81354 46.962475 382.01666L45.087475 382.01666L45.087475 379.5948L58.5406 379.5948Q62.181225 379.5948 63.69685 380.32916Q65.21248 381.06354 66.08748 382.6729Q66.96248 384.2823 66.96248 386.62604Q66.96248 389.4073 65.71248 391.12604Q64.46248 392.82916 61.94685 392.76666ZM52.587475 390.5948Q55.649975 390.5948 57.056225 389.37604Q58.462475 388.1573 58.462475 386.32916Q58.462475 384.51666 57.07185 383.2823Q55.6656 382.0479 52.681225 382.0479Q49.82185 382.0479 48.38435 383.31354Q46.931225 384.57916 46.931225 386.37604Q46.931225 388.12604 48.3531 389.3604Q49.774975 390.5948 52.587475 390.5948ZM55.63435 364.64166L55.9781 361.9073Q58.368725 362.56354 59.69685 364.31354Q61.00935 366.0479 61.00935 368.75104Q61.00935 372.1729 58.899975 374.1729Q56.7906 376.1729 53.00935 376.1729Q49.07185 376.1729 46.9156 374.1573Q44.743725 372.12604 44.743725 368.9073Q44.743725 365.7823 46.868725 363.81354Q48.993725 361.82916 52.837475 361.82916Q53.07185 361.82916 53.5406 361.8448L53.5406 373.43854Q56.1031 373.2979 57.4781 372.00104Q58.837475 370.68854 58.837475 368.7354Q58.837475 367.2979 58.07185 366.26666Q57.306225 365.2354 55.63435 364.64166ZM51.38435 373.2979L51.38435 364.6104Q49.4156 364.7823 48.431225 365.6104Q46.9156 366.8604 46.9156 368.87604Q46.9156 370.68854 48.13435 371.9229Q49.337475 373.1573 51.38435 373.2979ZM56.00935 352.3448L55.6031 349.7354Q57.1656 349.51666 58.00935 348.51666Q58.837475 347.51666 58.837475 345.70416Q58.837475 343.89166 58.1031 343.01666Q57.3531 342.12604 56.3531 342.12604Q55.462475 342.12604 54.94685 342.9073Q54.6031 343.45416 54.056225 345.6104Q53.32185 348.50104 52.7906 349.62604Q52.25935 350.75104 51.32185 351.32916Q50.368725 351.9073 49.2281 351.9073Q48.181225 351.9073 47.306225 351.43854Q46.4156 350.95416 45.82185 350.12604Q45.368725 349.51666 45.056225 348.45416Q44.743725 347.39166 44.743725 346.1729Q44.743725 344.3448 45.274975 342.9698Q45.7906 341.57916 46.69685 340.9229Q47.6031 340.25104 49.1031 340.01666L49.462475 342.5948Q48.25935 342.76666 47.587475 343.6104Q46.9156 344.45416 46.9156 345.9854Q46.9156 347.7979 47.50935 348.57916Q48.1031 349.3604 48.9156 349.3604Q49.431225 349.3604 49.837475 349.0323Q50.25935 348.70416 50.5406 348.01666Q50.681225 347.62604 51.212475 345.68854Q51.962475 342.89166 52.44685 341.7979Q52.9156 340.68854 53.82185 340.06354Q54.7281 339.4229 56.07185 339.4229Q57.399975 339.4229 58.57185 340.18854Q59.7281 340.95416 60.368725 342.4073Q61.00935 343.8604 61.00935 345.68854Q61.00935 348.7198 59.743725 350.31354Q58.4781 351.9073 56.00935 352.3448ZM42.212475 336.26666L39.181225 336.26666L39.181225 333.64166L42.212475 333.64166L42.212475 336.26666ZM60.649975 336.26666L45.087475 336.26666L45.087475 333.64166L60.649975 333.64166L60.649975 336.26666ZM60.649975 330.6729L58.50935 330.6729L47.149975 320.7823Q47.2281 322.4698 47.2281 323.75104L47.2281 330.0948L45.087475 330.0948L45.087475 317.37604L46.837475 317.37604L56.712475 325.7979L58.50935 327.4229Q58.38435 325.6573 58.38435 324.1104L58.38435 316.9073L60.649975 316.9073L60.649975 330.6729ZM55.63435 303.64166L55.9781 300.9073Q58.368725 301.56354 59.69685 303.31354Q61.00935 305.0479 61.00935 307.75104Q61.00935 311.1729 58.899975 313.1729Q56.7906 315.1729 53.00935 315.1729Q49.07185 315.1729 46.9156 313.1573Q44.743725 311.12604 44.743725 307.9073Q44.743725 304.7823 46.868725 302.81354Q48.993725 300.82916 52.837475 300.82916Q53.07185 300.82916 53.5406 300.8448L53.5406 312.43854Q56.1031 312.2979 57.4781 311.00104Q58.837475 309.68854 58.837475 307.7354Q58.837475 306.2979 58.07185 305.26666Q57.306225 304.2354 55.63435 303.64166ZM51.38435 312.2979L51.38435 303.6104Q49.4156 303.7823 48.431225 304.6104Q46.9156 305.8604 46.9156 307.87604Q46.9156 309.68854 48.13435 310.9229Q49.337475 312.1573 51.38435 312.2979ZM60.649975 297.5948L57.649975 297.5948L57.649975 294.5948L60.649975 294.5948Q62.306225 294.5948 63.32185 295.18854Q64.33748 295.76666 64.89998 297.0479L63.774975 297.7823Q63.399975 296.93854 62.681225 296.5479Q61.9781 296.1573 60.649975 296.1104L60.649975 297.5948ZM60.649975 282.0323L39.181225 282.0323L39.181225 277.76666L54.38435 272.6729Q56.50935 271.9698 57.556225 271.6573Q56.38435 271.2823 54.118725 270.51666L39.181225 265.37604L39.181225 261.5479L60.649975 261.5479L60.649975 264.2823L42.681225 264.2823L60.649975 270.5323L60.649975 273.0948L42.368725 279.2979L60.649975 279.2979L60.649975 282.0323ZM60.649975 257.06354L39.181225 257.06354L39.181225 249.01666Q39.181225 246.54791 39.837475 245.06354Q40.4781 243.57916 41.837475 242.73541Q43.181225 241.89166 44.6656 241.89166Q46.0406 241.89166 47.25935 242.64166Q48.4781 243.39166 49.2281 244.89166Q49.7906 242.95416 51.181225 241.90729Q52.556225 240.86041 54.431225 240.86041Q55.931225 240.86041 57.2281 241.50104Q58.524975 242.12604 59.2281 243.06354Q59.931225 244.00104 60.2906 245.42291Q60.649975 246.82916 60.649975 248.87604L60.649975 257.06354ZM48.19685 254.21979L48.19685 249.57916Q48.19685 247.68854 47.94685 246.87604Q47.63435 245.78229 46.88435 245.23541Q46.13435 244.68854 45.00935 244.68854Q43.931225 244.68854 43.118725 245.20416Q42.306225 245.71979 42.00935 246.67291Q41.712475 247.62604 41.712475 249.93854L41.712475 254.21979L48.19685 254.21979ZM58.118725 254.21979L58.118725 248.87604Q58.118725 247.50104 58.00935 246.95416Q57.837475 245.96979 57.431225 245.31354Q57.00935 244.64166 56.2281 244.21979Q55.44685 243.79791 54.431225 243.79791Q53.2281 243.79791 52.337475 244.42291Q51.44685 245.03229 51.087475 246.12604Q50.7281 247.20416 50.7281 249.26666L50.7281 254.21979L58.118725 254.21979Z" fill-rule="nonzero"/><path fill="#ffffff" d="M134.15 600.1156Q134.15 598.58435 134.4625 597.6625Q134.775 596.725 135.38437 596.225Q136.00937 595.725 136.94687 595.725Q137.63437 595.725 138.15 596.0062Q138.68124 596.2875 139.025 596.8187Q139.36874 597.33435 139.55624 598.08435Q139.74374 598.83435 139.74374 600.1156Q139.74374 601.6312 139.43124 602.5531Q139.13437 603.475 138.50937 603.9906Q137.9 604.4906 136.94687 604.4906Q135.7125 604.4906 134.99374 603.6Q134.15 602.5375 134.15 600.1156ZM135.22812 600.1156Q135.22812 602.225 135.72812 602.9281Q136.22812 603.6312 136.94687 603.6312Q137.68124 603.6312 138.16562 602.9281Q138.66562 602.225 138.66562 600.1156Q138.66562 597.9906 138.16562 597.3031Q137.68124 596.6 136.93124 596.6Q136.2125 596.6 135.775 597.20935Q135.22812 597.9906 135.22812 600.1156Z" fill-rule="nonzero"/><path fill="#ffffff" d="M125.69688 495.7927L125.69688 496.80832L120.00938 496.80832Q120.00938 496.43332 120.13438 496.07394Q120.35313 495.49582 120.82188 494.93332Q121.30625 494.37082 122.2125 493.63644Q123.61875 492.4802 124.10313 491.80832Q124.60313 491.13644 124.60313 490.5427Q124.60313 489.9177 124.15 489.49582Q123.69688 489.05832 122.97813 489.05832Q122.2125 489.05832 121.75938 489.51144Q121.30625 489.96457 121.29063 490.77707L120.2125 490.6677Q120.32188 489.44894 121.04063 488.82394Q121.775 488.18332 123.00938 488.18332Q124.24375 488.18332 124.9625 488.87082Q125.68125 489.55832 125.68125 490.57394Q125.68125 491.08957 125.4625 491.58957Q125.25938 492.07394 124.75938 492.63644Q124.275 493.18332 123.15 494.13644Q122.19688 494.93332 121.91563 495.2302Q121.65 495.51144 121.47813 495.7927L125.69688 495.7927ZM127.15 494.55832L128.25937 494.46457Q128.38437 495.27707 128.82187 495.68332Q129.275 496.08957 129.91562 496.08957Q130.66562 496.08957 131.19687 495.51144Q131.72812 494.93332 131.72812 493.99582Q131.72812 493.08957 131.2125 492.57394Q130.7125 492.0427 129.88437 492.0427Q129.38437 492.0427 128.9625 492.27707Q128.55624 492.51144 128.32187 492.87082L127.3375 492.74582L128.16562 488.33957L132.44687 488.33957L132.44687 489.33957L129.00937 489.33957L128.55624 491.65207Q129.32187 491.1052 130.16562 491.1052Q131.29062 491.1052 132.05624 491.88644Q132.8375 492.6677 132.8375 493.90207Q132.8375 495.05832 132.16562 495.9177Q131.3375 496.94894 129.91562 496.94894Q128.74374 496.94894 127.99375 496.2927Q127.25938 495.63644 127.15 494.55832ZM134.15 492.57394Q134.15 491.0427 134.4625 490.12082Q134.775 489.18332 135.38437 488.68332Q136.00937 488.18332 136.94687 488.18332Q137.63437 488.18332 138.15 488.46457Q138.68124 488.74582 139.025 489.27707Q139.36874 489.7927 139.55624 490.5427Q139.74374 491.2927 139.74374 492.57394Q139.74374 494.08957 139.43124 495.01144Q139.13437 495.93332 138.50937 496.44894Q137.9 496.94894 136.94687 496.94894Q135.7125 496.94894 134.99374 496.05832Q134.15 494.99582 134.15 492.57394ZM135.22812 492.57394Q135.22812 494.68332 135.72812 495.38644Q136.22812 496.08957 136.94687 496.08957Q137.68124 496.08957 138.16562 495.38644Q138.66562 494.68332 138.66562 492.57394Q138.66562 490.44894 138.16562 489.76144Q137.68124 489.05832 136.93124 489.05832Q136.2125 489.05832 135.775 489.6677Q135.22812 490.44894 135.22812 492.57394Z" fill-rule="nonzero"/><path fill="#ffffff" d="M120.15 387.01666L121.25938 386.9229Q121.38438 387.7354 121.82188 388.14166Q122.275 388.5479 122.91563 388.5479Q123.66563 388.5479 124.19688 387.9698Q124.72813 387.39166 124.72813 386.45416Q124.72813 385.5479 124.2125 385.0323Q123.7125 384.50104 122.88438 384.50104Q122.38438 384.50104 121.9625 384.7354Q121.55625 384.9698 121.32188 385.32916L120.3375 385.20416L121.16563 380.7979L125.44688 380.7979L125.44688 381.7979L122.00938 381.7979L121.55625 384.1104Q122.32188 383.56354 123.16563 383.56354Q124.29063 383.56354 125.05625 384.3448Q125.8375 385.12604 125.8375 386.3604Q125.8375 387.51666 125.16563 388.37604Q124.3375 389.4073 122.91563 389.4073Q121.74375 389.4073 120.99375 388.75104Q120.25938 388.0948 120.15 387.01666ZM127.15 385.0323Q127.15 383.50104 127.4625 382.57916Q127.775 381.64166 128.38437 381.14166Q129.00937 380.64166 129.94687 380.64166Q130.63437 380.64166 131.15 380.9229Q131.68124 381.20416 132.025 381.7354Q132.36874 382.25104 132.55624 383.00104Q132.74374 383.75104 132.74374 385.0323Q132.74374 386.5479 132.43124 387.4698Q132.13437 388.39166 131.50937 388.9073Q130.9 389.4073 129.94687 389.4073Q128.7125 389.4073 127.99375 388.51666Q127.15 387.45416 127.15 385.0323ZM128.22812 385.0323Q128.22812 387.14166 128.72812 387.8448Q129.22812 388.5479 129.94687 388.5479Q130.68124 388.5479 131.16562 387.8448Q131.66562 387.14166 131.66562 385.0323Q131.66562 382.9073 131.16562 382.2198Q130.68124 381.51666 129.93124 381.51666Q129.2125 381.51666 128.775 382.12604Q128.22812 382.9073 128.22812 385.0323ZM134.15 385.0323Q134.15 383.50104 134.4625 382.57916Q134.775 381.64166 135.38437 381.14166Q136.00937 380.64166 136.94687 380.64166Q137.63437 380.64166 138.15 380.9229Q138.68124 381.20416 139.025 381.7354Q139.36874 382.25104 139.55624 383.00104Q139.74374 383.75104 139.74374 385.0323Q139.74374 386.5479 139.43124 387.4698Q139.13437 388.39166 138.50937 388.9073Q137.9 389.4073 136.94687 389.4073Q135.7125 389.4073 134.99374 388.51666Q134.15 387.45416 134.15 385.0323ZM135.22812 385.0323Q135.22812 387.14166 135.72812 387.8448Q136.22812 388.5479 136.94687 388.5479Q137.68124 388.5479 138.16562 387.8448Q138.66562 387.14166 138.66562 385.0323Q138.66562 382.9073 138.16562 382.2198Q137.68124 381.51666 136.93124 381.51666Q136.2125 381.51666 135.775 382.12604Q135.22812 382.9073 135.22812 385.0323Z" fill-rule="nonzero"/><path fill="#ffffff" d="M120.2125 274.25626L120.2125 273.24063L125.775 273.24063L125.775 274.06876Q124.9625 274.94376 124.15 276.39688Q123.35313 277.83438 122.91563 279.36563Q122.5875 280.44376 122.50938 281.725L121.41563 281.725Q121.43125 280.70938 121.80625 279.27188Q122.19688 277.83438 122.9 276.50626Q123.61875 275.17813 124.43125 274.25626L120.2125 274.25626ZM127.15 279.475L128.25937 279.38126Q128.38437 280.19376 128.82187 280.6Q129.275 281.00626 129.91562 281.00626Q130.66562 281.00626 131.19687 280.42813Q131.72812 279.85 131.72812 278.9125Q131.72812 278.00626 131.2125 277.49063Q130.7125 276.95938 129.88437 276.95938Q129.38437 276.95938 128.9625 277.19376Q128.55624 277.42813 128.32187 277.7875L127.3375 277.6625L128.16562 273.25626L132.44687 273.25626L132.44687 274.25626L129.00937 274.25626L128.55624 276.56876Q129.32187 276.02188 130.16562 276.02188Q131.29062 276.02188 132.05624 276.80313Q132.8375 277.58438 132.8375 278.81876Q132.8375 279.975 132.16562 280.83438Q131.3375 281.86563 129.91562 281.86563Q128.74374 281.86563 127.99375 281.20938Q127.25938 280.55313 127.15 279.475ZM134.15 277.49063Q134.15 275.95938 134.4625 275.0375Q134.775 274.1 135.38437 273.6Q136.00937 273.1 136.94687 273.1Q137.63437 273.1 138.15 273.38126Q138.68124 273.6625 139.025 274.19376Q139.36874 274.70938 139.55624 275.45938Q139.74374 276.20938 139.74374 277.49063Q139.74374 279.00626 139.43124 279.92813Q139.13437 280.85 138.50937 281.36563Q137.9 281.86563 136.94687 281.86563Q135.7125 281.86563 134.99374 280.975Q134.15 279.9125 134.15 277.49063ZM135.22812 277.49063Q135.22812 279.6 135.72812 280.30313Q136.22812 281.00626 136.94687 281.00626Q137.68124 281.00626 138.16562 280.30313Q138.66562 279.6 138.66562 277.49063Q138.66562 275.36563 138.16562 274.67813Q137.68124 273.975 136.93124 273.975Q136.2125 273.975 135.775 274.58438Q135.22812 275.36563 135.22812 277.49063Z" fill-rule="nonzero"/><path fill="#ffffff" d="M117.11875 174.18333L116.07188 174.18333L116.07188 167.46458Q115.68125 167.82396 115.05625 168.19896Q114.44688 168.55833 113.9625 168.73021L113.9625 167.71458Q114.8375 167.29271 115.49375 166.71458Q116.16563 166.12083 116.44688 165.55833L117.11875 165.55833L117.11875 174.18333ZM120.15 169.94896Q120.15 168.41771 120.4625 167.49583Q120.775 166.55833 121.38438 166.05833Q122.00938 165.55833 122.94688 165.55833Q123.63438 165.55833 124.15 165.83958Q124.68125 166.12083 125.025 166.65208Q125.36875 167.16771 125.55625 167.91771Q125.74375 168.66771 125.74375 169.94896Q125.74375 171.46458 125.43125 172.38646Q125.13438 173.30833 124.50938 173.82396Q123.9 174.32396 122.94688 174.32396Q121.7125 174.32396 120.99375 173.43333Q120.15 172.37083 120.15 169.94896ZM121.22813 169.94896Q121.22813 172.05833 121.72813 172.76146Q122.22813 173.46458 122.94688 173.46458Q123.68125 173.46458 124.16563 172.76146Q124.66563 172.05833 124.66563 169.94896Q124.66563 167.82396 124.16563 167.13646Q123.68125 166.43333 122.93125 166.43333Q122.2125 166.43333 121.775 167.04271Q121.22813 167.82396 121.22813 169.94896ZM127.15 169.94896Q127.15 168.41771 127.4625 167.49583Q127.775 166.55833 128.38437 166.05833Q129.00937 165.55833 129.94687 165.55833Q130.63437 165.55833 131.15 165.83958Q131.68124 166.12083 132.025 166.65208Q132.36874 167.16771 132.55624 167.91771Q132.74374 168.66771 132.74374 169.94896Q132.74374 171.46458 132.43124 172.38646Q132.13437 173.30833 131.50937 173.82396Q130.9 174.32396 129.94687 174.32396Q128.7125 174.32396 127.99375 173.43333Q127.15 172.37083 127.15 169.94896ZM128.22812 169.94896Q128.22812 172.05833 128.72812 172.76146Q129.22812 173.46458 129.94687 173.46458Q130.68124 173.46458 131.16562 172.76146Q131.66562 172.05833 131.66562 169.94896Q131.66562 167.82396 131.16562 167.13646Q130.68124 166.43333 129.93124 166.43333Q129.2125 166.43333 128.775 167.04271Q128.22812 167.82396 128.22812 169.94896ZM134.15 169.94896Q134.15 168.41771 134.4625 167.49583Q134.775 166.55833 135.38437 166.05833Q136.00937 165.55833 136.94687 165.55833Q137.63437 165.55833 138.15 165.83958Q138.68124 166.12083 139.025 166.65208Q139.36874 167.16771 139.55624 167.91771Q139.74374 168.66771 139.74374 169.94896Q139.74374 171.46458 139.43124 172.38646Q139.13437 173.30833 138.50937 173.82396Q137.9 174.32396 136.94687 174.32396Q135.7125 174.32396 134.99374 173.43333Q134.15 172.37083 134.15 169.94896ZM135.22812 169.94896Q135.22812 172.05833 135.72812 172.76146Q136.22812 173.46458 136.94687 173.46458Q137.68124 173.46458 138.16562 172.76146Q138.66562 172.05833 138.66562 169.94896Q138.66562 167.82396 138.16562 167.13646Q137.68124 166.43333 136.93124 166.43333Q136.2125 166.43333 135.775 167.04271Q135.22812 167.82396 135.22812 169.94896Z" fill-rule="nonzero"/><path fill="#000000" d="M523.9219 617.35L523.9219 608.7562L526.8906 608.7562Q527.8906 608.7562 528.4219 608.8812Q529.15625 609.0531 529.6719 609.4906Q530.3594 610.0687 530.6875 610.975Q531.03125 611.8656 531.03125 613.0062Q531.03125 613.9906 530.7969 614.7406Q530.5781 615.4906 530.21875 615.9906Q529.8594 616.4906 529.4219 616.77185Q529.0 617.0531 528.40625 617.20935Q527.8125 617.35 527.03125 617.35L523.9219 617.35ZM525.0625 616.33435L526.8906 616.33435Q527.75 616.33435 528.2344 616.1781Q528.71875 616.02185 529.0 615.725Q529.40625 615.33435 529.625 614.64685Q529.8594 613.95935 529.8594 612.9906Q529.8594 611.64685 529.40625 610.9281Q528.96875 610.1937 528.34375 609.9437Q527.875 609.77185 526.875 609.77185L525.0625 609.77185L525.0625 616.33435ZM532.40625 614.2406Q532.40625 612.5062 533.3594 611.6781Q534.15625 610.9906 535.3125 610.9906Q536.59375 610.9906 537.40625 611.83435Q538.2344 612.6625 538.2344 614.14685Q538.2344 615.35 537.875 616.0375Q537.5156 616.725 536.8125 617.1156Q536.125 617.4906 535.3125 617.4906Q534.0156 617.4906 533.2031 616.6625Q532.40625 615.8187 532.40625 614.2406ZM533.4844 614.2406Q533.4844 615.4281 534.0 616.02185Q534.53125 616.6156 535.3125 616.6156Q536.1094 616.6156 536.625 616.02185Q537.1406 615.4281 537.1406 614.20935Q537.1406 613.0531 536.6094 612.45935Q536.09375 611.8656 535.3125 611.8656Q534.53125 611.8656 534.0 612.45935Q533.4844 613.0375 533.4844 614.2406ZM543.8594 615.0687L544.8906 615.20935Q544.71875 616.27185 544.0156 616.8812Q543.3125 617.4906 542.2969 617.4906Q541.0156 617.4906 540.2344 616.6625Q539.46875 615.8187 539.46875 614.2562Q539.46875 613.2562 539.7969 612.5062Q540.1406 611.7406 540.8125 611.3656Q541.5 610.9906 542.3125 610.9906Q543.3125 610.9906 543.9531 611.5062Q544.6094 612.0062 544.7969 612.95935L543.7656 613.1156Q543.625 612.4906 543.25 612.1781Q542.875 611.85 542.34375 611.85Q541.5469 611.85 541.0469 612.4281Q540.5469 612.9906 540.5469 614.225Q540.5469 615.4906 541.03125 616.0531Q541.5156 616.6156 542.28125 616.6156Q542.90625 616.6156 543.3125 616.2406Q543.7344 615.8656 543.8594 615.0687ZM545.7969 617.35L545.7969 608.7562L546.8594 608.7562L546.8594 613.6625L549.34375 611.1312L550.71875 611.1312L548.3281 613.4281L550.9531 617.35L549.65625 617.35L547.59375 614.1625L546.8594 614.8812L546.8594 617.35L545.7969 617.35ZM556.0469 615.35L557.1406 615.475Q556.8906 616.4281 556.1875 616.95935Q555.4844 617.4906 554.40625 617.4906Q553.0469 617.4906 552.2344 616.64685Q551.4375 615.8031 551.4375 614.2875Q551.4375 612.725 552.25 611.8656Q553.0625 610.9906 554.34375 610.9906Q555.59375 610.9906 556.375 611.83435Q557.1719 612.6781 557.1719 614.225Q557.1719 614.3187 557.1719 614.5062L552.53125 614.5062Q552.59375 615.5375 553.1094 616.08435Q553.625 616.6156 554.40625 616.6156Q554.9844 616.6156 555.3906 616.3187Q555.8125 616.0062 556.0469 615.35ZM552.59375 613.64685L556.0625 613.64685Q556.0 612.85 555.6719 612.45935Q555.15625 611.85 554.3594 611.85Q553.625 611.85 553.125 612.33435Q552.6406 612.8187 552.59375 613.64685ZM558.78125 617.35L558.78125 611.1312L559.7344 611.1312L559.7344 612.0687Q560.09375 611.4125 560.3906 611.20935Q560.7031 610.9906 561.0781 610.9906Q561.6094 610.9906 562.15625 611.3187L561.7969 612.3031Q561.40625 612.0687 561.03125 612.0687Q560.6719 612.0687 560.3906 612.2875Q560.125 612.4906 560.0156 612.8656Q559.8281 613.4281 559.8281 614.08435L559.8281 617.35L558.78125 617.35ZM565.7969 609.975L565.7969 608.7562L566.8594 608.7562L566.8594 609.975L565.7969 609.975ZM565.7969 617.35L565.7969 611.1312L566.8594 611.1312L566.8594 617.35L565.7969 617.35ZM568.7969 617.35L568.7969 611.1312L569.7344 611.1312L569.7344 612.0062Q570.03125 611.5375 570.5156 611.27185Q571.0 610.9906 571.625 610.9906Q572.3125 610.9906 572.75 611.27185Q573.2031 611.5531 573.375 612.0687Q574.125 610.9906 575.2969 610.9906Q576.2344 610.9906 576.71875 611.5062Q577.21875 612.0062 577.21875 613.08435L577.21875 617.35L576.1719 617.35L576.1719 613.4281Q576.1719 612.8031 576.0625 612.52185Q575.96875 612.2406 575.7031 612.0687Q575.4375 611.89685 575.0625 611.89685Q574.40625 611.89685 573.96875 612.33435Q573.5469 612.77185 573.5469 613.7406L573.5469 617.35L572.4844 617.35L572.4844 613.3031Q572.4844 612.6 572.21875 612.2562Q571.96875 611.89685 571.3906 611.89685Q570.9375 611.89685 570.5625 612.1312Q570.1875 612.3656 570.0156 612.8187Q569.84375 613.27185 569.84375 614.1156L569.84375 617.35L568.7969 617.35ZM583.8594 616.58435Q583.2656 617.08435 582.71875 617.2875Q582.1875 617.4906 581.5625 617.4906Q580.53125 617.4906 579.9844 616.9906Q579.4375 616.4906 579.4375 615.70935Q579.4375 615.2562 579.6406 614.8812Q579.84375 614.4906 580.1875 614.27185Q580.53125 614.0375 580.9531 613.9281Q581.25 613.83435 581.8906 613.7562Q583.15625 613.6156 583.7656 613.39685Q583.7656 613.1781 583.7656 613.1312Q583.7656 612.475 583.46875 612.20935Q583.0625 611.8656 582.2656 611.8656Q581.53125 611.8656 581.1719 612.1312Q580.8125 612.3812 580.6406 613.0375L579.6094 612.89685Q579.75 612.2406 580.0781 611.83435Q580.40625 611.4281 581.0156 611.20935Q581.625 610.9906 582.4219 610.9906Q583.21875 610.9906 583.71875 611.1781Q584.21875 611.3656 584.4531 611.64685Q584.6875 611.9281 584.78125 612.3656Q584.8281 612.6312 584.8281 613.33435L584.8281 614.7406Q584.8281 616.20935 584.8906 616.6Q584.96875 616.9906 585.1719 617.35L584.0625 617.35Q583.90625 617.02185 583.8594 616.58435ZM583.7656 614.225Q583.1875 614.45935 582.0469 614.6312Q581.3906 614.725 581.125 614.85Q580.8594 614.95935 580.7031 615.1781Q580.5625 615.39685 580.5625 615.6781Q580.5625 616.1 580.875 616.3812Q581.2031 616.6625 581.8125 616.6625Q582.4219 616.6625 582.8906 616.39685Q583.375 616.1312 583.59375 615.6625Q583.7656 615.3031 583.7656 614.6156L583.7656 614.225ZM586.59375 617.8656L587.625 618.02185Q587.6875 618.4906 587.9844 618.70935Q588.375 619.0062 589.0469 619.0062Q589.78125 619.0062 590.1719 618.70935Q590.5781 618.4125 590.71875 617.89685Q590.8125 617.5687 590.7969 616.5375Q590.1094 617.35 589.0781 617.35Q587.7969 617.35 587.09375 616.4281Q586.3906 615.4906 586.3906 614.20935Q586.3906 613.3187 586.7031 612.5687Q587.03125 611.8031 587.6406 611.39685Q588.25 610.9906 589.0781 610.9906Q590.1875 610.9906 590.90625 611.8812L590.90625 611.1312L591.875 611.1312L591.875 616.5062Q591.875 617.95935 591.5781 618.5687Q591.28125 619.1781 590.6406 619.52185Q590.0 619.8812 589.0625 619.8812Q587.9531 619.8812 587.2656 619.3812Q586.5781 618.8812 586.59375 617.8656ZM587.46875 614.1312Q587.46875 615.35 587.9531 615.9125Q588.4375 616.475 589.1719 616.475Q589.90625 616.475 590.3906 615.9125Q590.8906 615.35 590.8906 614.1625Q590.8906 613.02185 590.375 612.4437Q589.875 611.8656 589.15625 611.8656Q588.4531 611.8656 587.9531 612.4437Q587.46875 613.0062 587.46875 614.1312ZM598.0469 615.35L599.1406 615.475Q598.8906 616.4281 598.1875 616.95935Q597.4844 617.4906 596.40625 617.4906Q595.0469 617.4906 594.2344 616.64685Q593.4375 615.8031 593.4375 614.2875Q593.4375 612.725 594.25 611.8656Q595.0625 610.9906 596.34375 610.9906Q597.59375 610.9906 598.375 611.83435Q599.1719 612.6781 599.1719 614.225Q599.1719 614.3187 599.1719 614.5062L594.53125 614.5062Q594.59375 615.5375 595.1094 616.08435Q595.625 616.6156 596.40625 616.6156Q596.9844 616.6156 597.3906 616.3187Q597.8125 616.0062 598.0469 615.35ZM594.59375 613.64685L598.0625 613.64685Q598.0 612.85 597.6719 612.45935Q597.15625 611.85 596.3594 611.85Q595.625 611.85 595.125 612.33435Q594.6406 612.8187 594.59375 613.64685ZM603.375 615.4906L604.40625 615.33435Q604.5 615.95935 604.8906 616.2875Q605.2969 616.6156 606.03125 616.6156Q606.75 616.6156 607.09375 616.33435Q607.4531 616.0375 607.4531 615.6312Q607.4531 615.27185 607.1406 615.0687Q606.9219 614.9281 606.0625 614.70935Q604.90625 614.4125 604.4531 614.20935Q604.0156 613.9906 603.78125 613.6156Q603.5469 613.2406 603.5469 612.77185Q603.5469 612.3656 603.7344 612.0062Q603.9219 611.64685 604.25 611.4125Q604.5 611.2406 604.9219 611.1156Q605.34375 610.9906 605.84375 610.9906Q606.5625 610.9906 607.1094 611.20935Q607.6719 611.4125 607.9375 611.77185Q608.2031 612.1312 608.2969 612.725L607.2656 612.8656Q607.2031 612.39685 606.8594 612.1312Q606.53125 611.85 605.90625 611.85Q605.1875 611.85 604.875 612.1Q604.5625 612.33435 604.5625 612.6625Q604.5625 612.8656 604.6875 613.02185Q604.8281 613.1937 605.09375 613.3031Q605.25 613.3656 606.03125 613.5687Q607.15625 613.8812 607.59375 614.0687Q608.03125 614.2562 608.28125 614.6156Q608.53125 614.975 608.53125 615.52185Q608.53125 616.0531 608.21875 616.52185Q607.9219 616.975 607.34375 617.2406Q606.7656 617.4906 606.03125 617.4906Q604.8125 617.4906 604.1719 616.9906Q603.5469 616.475 603.375 615.4906ZM610.7969 609.975L610.7969 608.7562L611.8594 608.7562L611.8594 609.975L610.7969 609.975ZM610.7969 617.35L610.7969 611.1312L611.8594 611.1312L611.8594 617.35L610.7969 617.35ZM613.2344 617.35L613.2344 616.4906L617.2031 611.9437Q616.5156 611.975 616.0 611.975L613.46875 611.975L613.46875 611.1312L618.5625 611.1312L618.5625 611.8187L615.1875 615.77185L614.53125 616.4906Q615.25 616.4437 615.8594 616.4437L618.75 616.4437L618.75 617.35L613.2344 617.35ZM623.0469 615.35L624.1406 615.475Q623.8906 616.4281 623.1875 616.95935Q622.4844 617.4906 621.40625 617.4906Q620.0469 617.4906 619.2344 616.64685Q618.4375 615.8031 618.4375 614.2875Q618.4375 612.725 619.25 611.8656Q620.0625 610.9906 621.34375 610.9906Q622.59375 610.9906 623.375 611.83435Q624.1719 612.6781 624.1719 614.225Q624.1719 614.3187 624.1719 614.5062L619.53125 614.5062Q619.59375 615.5375 620.1094 616.08435Q620.625 616.6156 621.40625 616.6156Q621.9844 616.6156 622.3906 616.3187Q622.8125 616.0062 623.0469 615.35ZM619.59375 613.64685L623.0625 613.64685Q623.0 612.85 622.6719 612.45935Q622.15625 611.85 621.3594 611.85Q620.625 611.85 620.125 612.33435Q619.6406 612.8187 619.59375 613.64685ZM626.0625 617.35L626.0625 616.14685L627.2656 616.14685L627.2656 617.35Q627.2656 618.0062 627.03125 618.4125Q626.7969 618.83435 626.2969 619.0531L626.0 618.6Q626.3281 618.45935 626.4844 618.1625Q626.6406 617.8812 626.6719 617.35L626.0625 617.35ZM631.8906 617.35L631.8906 608.7562L633.6094 608.7562L635.6406 614.83435Q635.9219 615.6937 636.0469 616.1156Q636.1875 615.64685 636.5 614.7406L638.5625 608.7562L640.09375 608.7562L640.09375 617.35L639.0 617.35L639.0 610.1625L636.5 617.35L635.46875 617.35L632.9844 610.0375L632.9844 617.35L631.8906 617.35ZM640.875 617.35L640.875 608.7562L644.1094 608.7562Q645.09375 608.7562 645.6875 609.02185Q646.28125 609.2875 646.6094 609.83435Q646.9531 610.3656 646.9531 610.95935Q646.9531 611.5062 646.65625 611.9906Q646.3594 612.475 645.75 612.77185Q646.53125 613.0062 646.9375 613.5687Q647.3594 614.1156 647.3594 614.8656Q647.3594 615.45935 647.1094 615.9906Q646.8594 616.5062 646.4844 616.7875Q646.1094 617.0687 645.53125 617.20935Q644.96875 617.35 644.15625 617.35L640.875 617.35ZM642.0156 612.3656L643.875 612.3656Q644.625 612.3656 644.9531 612.27185Q645.3906 612.14685 645.6094 611.85Q645.8281 611.5375 645.8281 611.08435Q645.8281 610.6625 645.625 610.33435Q645.4219 610.0062 645.03125 609.89685Q644.65625 609.77185 643.7344 609.77185L642.0156 609.77185L642.0156 612.3656ZM642.0156 616.33435L644.15625 616.33435Q644.7031 616.33435 644.9219 616.2875Q645.3281 616.225 645.5781 616.0687Q645.84375 615.89685 646.0156 615.58435Q646.1875 615.27185 646.1875 614.8656Q646.1875 614.3812 645.9375 614.02185Q645.7031 613.6625 645.2656 613.52185Q644.8281 613.3812 644.0 613.3812L642.0156 613.3812L642.0156 616.33435Z" fill-rule="nonzero"/><path fill="#4285f4" d="M307.0 118.916664C307.0 118.36438 307.44772 117.916664 308.0 117.916664L318.0 117.916664C318.55228 117.916664 319.0 118.36438 319.0 118.916664L319.0 128.91667C319.0 129.46895 318.55228 129.91667 318.0 129.91667L308.0 129.91667C307.44772 129.91667 307.0 129.46895 307.0 128.91667Z" fill-rule="nonzero"/><path fill="#ffffff" d="M329.3125 134.41667L329.3125 112.94792L337.42188 112.94792Q339.54688 112.94792 340.6875 113.15105Q342.26562 113.41667 343.32812 114.15105Q344.40625 114.88542 345.04688 116.22917Q345.70312 117.5573 345.70312 119.15105Q345.70312 121.88542 343.95312 123.79167Q342.21875 125.6823 337.67188 125.6823L332.15625 125.6823L332.15625 134.41667L329.3125 134.41667ZM332.15625 123.15105L337.70312 123.15105Q340.46875 123.15105 341.625 122.13542Q342.78125 121.10417 342.78125 119.2448Q342.78125 117.88542 342.09375 116.9323Q341.42188 115.97917 340.29688 115.66667Q339.57812 115.47917 337.65625 115.47917L332.15625 115.47917L332.15625 123.15105ZM348.92188 134.41667L348.92188 112.94792L351.5625 112.94792L351.5625 134.41667L348.92188 134.41667ZM366.125 132.4948Q364.67188 133.7448 363.3125 134.26042Q361.95312 134.77605 360.40625 134.77605Q357.84375 134.77605 356.45312 133.52605Q355.07812 132.26042 355.07812 130.3073Q355.07812 129.16667 355.59375 128.22917Q356.125 127.27605 356.96875 126.71355Q357.8125 126.13542 358.85938 125.85417Q359.64062 125.63542 361.20312 125.44792Q364.40625 125.07292 365.90625 124.54167Q365.92188 123.9948 365.92188 123.85417Q365.92188 122.2448 365.17188 121.58855Q364.17188 120.69792 362.17188 120.69792Q360.3125 120.69792 359.42188 121.35417Q358.54688 121.9948 358.10938 123.65105L355.53125 123.29167Q355.89062 121.63542 356.6875 120.6198Q357.5 119.60417 359.01562 119.0573Q360.54688 118.51042 362.5625 118.51042Q364.54688 118.51042 365.78125 118.97917Q367.03125 119.44792 367.60938 120.16667Q368.20312 120.8698 368.4375 121.94792Q368.57812 122.6198 368.57812 124.38542L368.57812 127.90105Q368.57812 131.57292 368.73438 132.5573Q368.90625 133.52605 369.40625 134.41667L366.65625 134.41667Q366.25 133.58855 366.125 132.4948ZM365.90625 126.60417Q364.46875 127.19792 361.60938 127.60417Q359.98438 127.83855 359.29688 128.13542Q358.625 128.4323 358.25 128.9948Q357.89062 129.5573 357.89062 130.2448Q357.89062 131.29167 358.6875 131.9948Q359.5 132.69792 361.03125 132.69792Q362.5625 132.69792 363.73438 132.04167Q364.92188 131.3698 365.48438 130.21355Q365.90625 129.32292 365.90625 127.57292L365.90625 126.60417ZM372.0 115.97917L372.0 112.94792L374.625 112.94792L374.625 115.97917L372.0 115.97917ZM372.0 134.41667L372.0 118.85417L374.625 118.85417L374.625 134.41667L372.0 134.41667ZM378.98438 134.41667L378.98438 118.85417L381.34375 118.85417L381.34375 121.07292Q383.0625 118.51042 386.29688 118.51042Q387.70312 118.51042 388.875 119.02605Q390.0625 119.52605 390.64062 120.35417Q391.23438 121.16667 391.46875 122.29167Q391.625 123.02605 391.625 124.85417L391.625 134.41667L388.98438 134.41667L388.98438 124.94792Q388.98438 123.33855 388.67188 122.54167Q388.375 121.7448 387.57812 121.27605Q386.79688 120.79167 385.75 120.79167Q384.0625 120.79167 382.82812 121.8698Q381.60938 122.9323 381.60938 125.91667L381.60938 134.41667L378.98438 134.41667Z" fill-rule="nonzero"/><path fill="#ea4335" d="M410.0 118.916664C410.0 118.36438 410.44772 117.916664 411.0 117.916664L421.0 117.916664C421.55228 117.916664 422.0 118.36438 422.0 118.916664L422.0 128.91667C422.0 129.46895 421.55228 129.91667 421.0 129.91667L411.0 129.91667C410.44772 129.91667 410.0 129.46895 410.0 128.91667Z" fill-rule="nonzero"/><path fill="#ffffff" d="M432.23438 134.41667L432.23438 112.94792L436.5 112.94792L441.59375 128.15105Q442.29688 130.27605 442.60938 131.32292Q442.98438 130.15105 443.75 127.88542L448.89062 112.94792L452.71875 112.94792L452.71875 134.41667L449.98438 134.41667L449.98438 116.44792L443.73438 134.41667L441.17188 134.41667L434.96875 116.13542L434.96875 134.41667L432.23438 134.41667ZM467.17188 134.41667L467.17188 132.13542Q465.35938 134.77605 462.23438 134.77605Q460.85938 134.77605 459.65625 134.2448Q458.46875 133.71355 457.89062 132.91667Q457.3125 132.1198 457.07812 130.96355Q456.92188 130.1823 456.92188 128.4948L456.92188 118.85417L459.5625 118.85417L459.5625 127.4948Q459.5625 129.5573 459.71875 130.27605Q459.96875 131.3073 460.76562 131.90105Q461.57812 132.4948 462.76562 132.4948Q463.95312 132.4948 464.98438 131.88542Q466.03125 131.27605 466.45312 130.22917Q466.89062 129.1823 466.89062 127.19792L466.89062 118.85417L469.53125 118.85417L469.53125 134.41667L467.17188 134.41667ZM473.92188 134.41667L473.92188 112.94792L476.5625 112.94792L476.5625 134.41667L473.92188 134.41667ZM486.73438 132.0573L487.10938 134.38542Q486.0 134.6198 485.125 134.6198Q483.6875 134.6198 482.89062 134.16667Q482.10938 133.71355 481.78125 132.97917Q481.46875 132.22917 481.46875 129.85417L481.46875 120.91667L479.53125 120.91667L479.53125 118.85417L481.46875 118.85417L481.46875 115.01042L484.07812 113.4323L484.07812 118.85417L486.73438 118.85417L486.73438 120.91667L484.07812 120.91667L484.07812 130.01042Q484.07812 131.13542 484.21875 131.46355Q484.35938 131.77605 484.67188 131.97917Q484.98438 132.16667 485.57812 132.16667Q486.01562 132.16667 486.73438 132.0573ZM489.0 115.97917L489.0 112.94792L491.625 112.94792L491.625 115.97917L489.0 115.97917ZM489.0 134.41667L489.0 118.85417L491.625 118.85417L491.625 134.41667L489.0 134.41667ZM494.95312 127.96355L494.95312 125.32292L503.04688 125.32292L503.04688 127.96355L494.95312 127.96355ZM504.92188 129.77605L507.53125 129.3698Q507.75 130.9323 508.75 131.77605Q509.75 132.60417 511.5625 132.60417Q513.375 132.60417 514.25 131.8698Q515.1406 131.1198 515.1406 130.1198Q515.1406 129.22917 514.3594 128.71355Q513.8125 128.3698 511.65625 127.82292Q508.76562 127.08855 507.64062 126.5573Q506.51562 126.02605 505.9375 125.08855Q505.35938 124.13542 505.35938 122.9948Q505.35938 121.94792 505.82812 121.07292Q506.3125 120.1823 507.14062 119.58855Q507.75 119.13542 508.8125 118.82292Q509.875 118.51042 511.09375 118.51042Q512.9219 118.51042 514.2969 119.04167Q515.6875 119.5573 516.34375 120.46355Q517.0156 121.3698 517.25 122.8698L514.6719 123.22917Q514.5 122.02605 513.65625 121.35417Q512.8125 120.6823 511.28125 120.6823Q509.46875 120.6823 508.6875 121.27605Q507.90625 121.8698 507.90625 122.6823Q507.90625 123.19792 508.23438 123.60417Q508.5625 124.02605 509.25 124.3073Q509.64062 124.44792 511.57812 124.97917Q514.375 125.72917 515.46875 126.21355Q516.5781 126.6823 517.2031 127.58855Q517.84375 128.4948 517.84375 129.83855Q517.84375 131.16667 517.0781 132.33855Q516.3125 133.4948 514.8594 134.13542Q513.40625 134.77605 511.57812 134.77605Q508.54688 134.77605 506.95312 133.51042Q505.35938 132.2448 504.92188 129.77605ZM526.7344 132.0573L527.1094 134.38542Q526.0 134.6198 525.125 134.6198Q523.6875 134.6198 522.8906 134.16667Q522.1094 133.71355 521.78125 132.97917Q521.46875 132.22917 521.46875 129.85417L521.46875 120.91667L519.53125 120.91667L519.53125 118.85417L521.46875 118.85417L521.46875 115.01042L524.0781 113.4323L524.0781 118.85417L526.7344 118.85417L526.7344 120.91667L524.0781 120.91667L524.0781 130.01042Q524.0781 131.13542 524.21875 131.46355Q524.3594 131.77605 524.6719 131.97917Q524.9844 132.16667 525.5781 132.16667Q526.0156 132.16667 526.7344 132.0573ZM539.125 132.4948Q537.6719 133.7448 536.3125 134.26042Q534.9531 134.77605 533.40625 134.77605Q530.84375 134.77605 529.4531 133.52605Q528.0781 132.26042 528.0781 130.3073Q528.0781 129.16667 528.59375 128.22917Q529.125 127.27605 529.96875 126.71355Q530.8125 126.13542 531.8594 125.85417Q532.6406 125.63542 534.2031 125.44792Q537.40625 125.07292 538.90625 124.54167Q538.9219 123.9948 538.9219 123.85417Q538.9219 122.2448 538.1719 121.58855Q537.1719 120.69792 535.1719 120.69792Q533.3125 120.69792 532.4219 121.35417Q531.5469 121.9948 531.1094 123.65105L528.53125 123.29167Q528.8906 121.63542 529.6875 120.6198Q530.5 119.60417 532.0156 119.0573Q533.5469 118.51042 535.5625 118.51042Q537.5469 118.51042 538.78125 118.97917Q540.03125 119.44792 540.6094 120.16667Q541.2031 120.8698 541.4375 121.94792Q541.5781 122.6198 541.5781 124.38542L541.5781 127.90105Q541.5781 131.57292 541.7344 132.5573Q541.90625 133.52605 542.40625 134.41667L539.65625 134.41667Q539.25 133.58855 539.125 132.4948ZM538.90625 126.60417Q537.46875 127.19792 534.6094 127.60417Q532.9844 127.83855 532.2969 128.13542Q531.625 128.4323 531.25 128.9948Q530.8906 129.5573 530.8906 130.2448Q530.8906 131.29167 531.6875 131.9948Q532.5 132.69792 534.03125 132.69792Q535.5625 132.69792 536.7344 132.04167Q537.9219 131.3698 538.4844 130.21355Q538.90625 129.32292 538.90625 127.57292L538.90625 126.60417ZM544.5 135.71355L547.0625 136.08855Q547.21875 137.27605 547.9531 137.82292Q548.9375 138.54167 550.625 138.54167Q552.46875 138.54167 553.4531 137.8073Q554.4531 137.08855 554.8125 135.76042Q555.0156 134.96355 555.0 132.38542Q553.2656 134.41667 550.6875 134.41667Q547.4844 134.41667 545.71875 132.10417Q543.96875 129.79167 543.96875 126.5573Q543.96875 124.32292 544.7656 122.44792Q545.5781 120.5573 547.1094 119.54167Q548.6406 118.51042 550.7031 118.51042Q553.4531 118.51042 555.25 120.72917L555.25 118.85417L557.6719 118.85417L557.6719 132.3073Q557.6719 135.94792 556.9375 137.46355Q556.2031 138.97917 554.59375 139.85417Q552.9844 140.72917 550.6406 140.72917Q547.8594 140.72917 546.1406 139.47917Q544.4375 138.22917 544.5 135.71355ZM546.6719 126.35417Q546.6719 129.41667 547.8906 130.82292Q549.1094 132.22917 550.9375 132.22917Q552.75 132.22917 553.9844 130.83855Q555.21875 129.4323 555.21875 126.44792Q555.21875 123.58855 553.9531 122.15105Q552.6875 120.69792 550.8906 120.69792Q549.1406 120.69792 547.90625 122.1198Q546.6719 123.54167 546.6719 126.35417ZM572.625 129.40105L575.3594 129.7448Q574.7031 132.13542 572.9531 133.46355Q571.21875 134.77605 568.5156 134.77605Q565.09375 134.77605 563.09375 132.66667Q561.09375 130.5573 561.09375 126.77605Q561.09375 122.83855 563.1094 120.6823Q565.1406 118.51042 568.3594 118.51042Q571.4844 118.51042 573.4531 120.63542Q575.4375 122.76042 575.4375 126.60417Q575.4375 126.83855 575.4219 127.3073L563.8281 127.3073Q563.96875 129.8698 565.2656 131.2448Q566.5781 132.60417 568.53125 132.60417Q569.96875 132.60417 571.0 131.83855Q572.03125 131.07292 572.625 129.40105ZM563.96875 125.15105L572.65625 125.15105Q572.4844 123.1823 571.65625 122.19792Q570.40625 120.6823 568.3906 120.6823Q566.5781 120.6823 565.34375 121.90105Q564.1094 123.10417 563.96875 125.15105Z" fill-rule="nonzero"/><path fill="#fbbc04" d="M592.0 118.916664C592.0 118.36438 592.4477 117.916664 593.0 117.916664L603.0 117.916664C603.5523 117.916664 604.0 118.36438 604.0 118.916664L604.0 128.91667C604.0 129.46895 603.5523 129.91667 603.0 129.91667L593.0 129.91667C592.4477 129.91667 592.0 129.46895 592.0 128.91667Z" fill-rule="nonzero"/><path fill="#ffffff" d="M614.2031 134.41667L614.2031 112.94792L617.0469 112.94792L617.0469 131.88542L627.6094 131.88542L627.6094 134.41667L614.2031 134.41667ZM631.0 115.97917L631.0 112.94792L633.625 112.94792L633.625 115.97917L631.0 115.97917ZM631.0 134.41667L631.0 118.85417L633.625 118.85417L633.625 134.41667L631.0 134.41667ZM637.5 135.71355L640.0625 136.08855Q640.21875 137.27605 640.9531 137.82292Q641.9375 138.54167 643.625 138.54167Q645.46875 138.54167 646.4531 137.8073Q647.4531 137.08855 647.8125 135.76042Q648.0156 134.96355 648.0 132.38542Q646.2656 134.41667 643.6875 134.41667Q640.4844 134.41667 638.71875 132.10417Q636.96875 129.79167 636.96875 126.5573Q636.96875 124.32292 637.7656 122.44792Q638.5781 120.5573 640.1094 119.54167Q641.6406 118.51042 643.7031 118.51042Q646.4531 118.51042 648.25 120.72917L648.25 118.85417L650.6719 118.85417L650.6719 132.3073Q650.6719 135.94792 649.9375 137.46355Q649.2031 138.97917 647.59375 139.85417Q645.9844 140.72917 643.6406 140.72917Q640.8594 140.72917 639.1406 139.47917Q637.4375 138.22917 637.5 135.71355ZM639.6719 126.35417Q639.6719 129.41667 640.8906 130.82292Q642.1094 132.22917 643.9375 132.22917Q645.75 132.22917 646.9844 130.83855Q648.21875 129.4323 648.21875 126.44792Q648.21875 123.58855 646.9531 122.15105Q645.6875 120.69792 643.8906 120.69792Q642.1406 120.69792 640.90625 122.1198Q639.6719 123.54167 639.6719 126.35417ZM654.9844 134.41667L654.9844 112.94792L657.6094 112.94792L657.6094 120.65105Q659.4531 118.51042 662.2656 118.51042Q664.0 118.51042 665.2656 119.19792Q666.5469 119.8698 667.09375 121.07292Q667.65625 122.27605 667.65625 124.5573L667.65625 134.41667L665.0156 134.41667L665.0156 124.5573Q665.0156 122.57292 664.15625 121.6823Q663.2969 120.77605 661.7344 120.77605Q660.5625 120.77605 659.53125 121.38542Q658.5 121.9948 658.0469 123.04167Q657.6094 124.07292 657.6094 125.90105L657.6094 134.41667L654.9844 134.41667ZM677.7344 132.0573L678.1094 134.38542Q677.0 134.6198 676.125 134.6198Q674.6875 134.6198 673.8906 134.16667Q673.1094 133.71355 672.78125 132.97917Q672.46875 132.22917 672.46875 129.85417L672.46875 120.91667L670.53125 120.91667L670.53125 118.85417L672.46875 118.85417L672.46875 115.01042L675.0781 113.4323L675.0781 118.85417L677.7344 118.85417L677.7344 120.91667L675.0781 120.91667L675.0781 130.01042Q675.0781 131.13542 675.21875 131.46355Q675.3594 131.77605 675.6719 131.97917Q675.9844 132.16667 676.5781 132.16667Q677.0156 132.16667 677.7344 132.0573ZM690.40625 134.41667L687.96875 134.41667L687.96875 112.94792L690.59375 112.94792L690.59375 120.60417Q692.2656 118.51042 694.8594 118.51042Q696.2969 118.51042 697.5781 119.08855Q698.8594 119.66667 699.6875 120.71355Q700.5156 121.76042 700.9844 123.2448Q701.4531 124.71355 701.4531 126.40105Q701.4531 130.40105 699.46875 132.58855Q697.5 134.77605 694.7344 134.77605Q691.9844 134.77605 690.40625 132.46355L690.40625 134.41667ZM690.375 126.52605Q690.375 129.32292 691.1406 130.5573Q692.3906 132.60417 694.5156 132.60417Q696.2344 132.60417 697.5 131.10417Q698.7656 129.60417 698.7656 126.6198Q698.7656 123.57292 697.5469 122.13542Q696.34375 120.6823 694.625 120.6823Q692.90625 120.6823 691.6406 122.1823Q690.375 123.6823 690.375 126.52605ZM715.125 132.4948Q713.6719 133.7448 712.3125 134.26042Q710.9531 134.77605 709.40625 134.77605Q706.84375 134.77605 705.4531 133.52605Q704.0781 132.26042 704.0781 130.3073Q704.0781 129.16667 704.59375 128.22917Q705.125 127.27605 705.96875 126.71355Q706.8125 126.13542 707.8594 125.85417Q708.6406 125.63542 710.2031 125.44792Q713.40625 125.07292 714.90625 124.54167Q714.9219 123.9948 714.9219 123.85417Q714.9219 122.2448 714.1719 121.58855Q713.1719 120.69792 711.1719 120.69792Q709.3125 120.69792 708.4219 121.35417Q707.5469 121.9948 707.1094 123.65105L704.53125 123.29167Q704.8906 121.63542 705.6875 120.6198Q706.5 119.60417 708.0156 119.0573Q709.5469 118.51042 711.5625 118.51042Q713.5469 118.51042 714.78125 118.97917Q716.03125 119.44792 716.6094 120.16667Q717.2031 120.8698 717.4375 121.94792Q717.5781 122.6198 717.5781 124.38542L717.5781 127.90105Q717.5781 131.57292 717.7344 132.5573Q717.90625 133.52605 718.40625 134.41667L715.65625 134.41667Q715.25 133.58855 715.125 132.4948ZM714.90625 126.60417Q713.46875 127.19792 710.6094 127.60417Q708.9844 127.83855 708.2969 128.13542Q707.625 128.4323 707.25 128.9948Q706.8906 129.5573 706.8906 130.2448Q706.8906 131.29167 707.6875 131.9948Q708.5 132.69792 710.03125 132.69792Q711.5625 132.69792 712.7344 132.04167Q713.9219 131.3698 714.4844 130.21355Q714.90625 129.32292 714.90625 127.57292L714.90625 126.60417ZM719.9219 129.77605L722.53125 129.3698Q722.75 130.9323 723.75 131.77605Q724.75 132.60417 726.5625 132.60417Q728.375 132.60417 729.25 131.8698Q730.1406 131.1198 730.1406 130.1198Q730.1406 129.22917 729.3594 128.71355Q728.8125 128.3698 726.65625 127.82292Q723.7656 127.08855 722.6406 126.5573Q721.5156 126.02605 720.9375 125.08855Q720.3594 124.13542 720.3594 122.9948Q720.3594 121.94792 720.8281 121.07292Q721.3125 120.1823 722.1406 119.58855Q722.75 119.13542 723.8125 118.82292Q724.875 118.51042 726.09375 118.51042Q727.9219 118.51042 729.2969 119.04167Q730.6875 119.5573 731.34375 120.46355Q732.0156 121.3698 732.25 122.8698L729.6719 123.22917Q729.5 122.02605 728.65625 121.35417Q727.8125 120.6823 726.28125 120.6823Q724.46875 120.6823 723.6875 121.27605Q722.90625 121.8698 722.90625 122.6823Q722.90625 123.19792 723.2344 123.60417Q723.5625 124.02605 724.25 124.3073Q724.6406 124.44792 726.5781 124.97917Q729.375 125.72917 730.46875 126.21355Q731.5781 126.6823 732.2031 127.58855Q732.84375 128.4948 732.84375 129.83855Q732.84375 131.16667 732.0781 132.33855Q731.3125 133.4948 729.8594 134.13542Q728.40625 134.77605 726.5781 134.77605Q723.5469 134.77605 721.9531 133.51042Q720.3594 132.2448 719.9219 129.77605ZM746.625 129.40105L749.3594 129.7448Q748.7031 132.13542 746.9531 133.46355Q745.21875 134.77605 742.5156 134.77605Q739.09375 134.77605 737.09375 132.66667Q735.09375 130.5573 735.09375 126.77605Q735.09375 122.83855 737.1094 120.6823Q739.1406 118.51042 742.3594 118.51042Q745.4844 118.51042 747.4531 120.63542Q749.4375 122.76042 749.4375 126.60417Q749.4375 126.83855 749.4219 127.3073L737.8281 127.3073Q737.96875 129.8698 739.2656 131.2448Q740.5781 132.60417 742.53125 132.60417Q743.96875 132.60417 745.0 131.83855Q746.03125 131.07292 746.625 129.40105ZM737.96875 125.15105L746.65625 125.15105Q746.4844 123.1823 745.65625 122.19792Q744.40625 120.6823 742.3906 120.6823Q740.5781 120.6823 739.34375 121.90105Q738.1094 123.10417 737.96875 125.15105Z" fill-rule="nonzero"/><path fill="#ffffff" d="M36.196877 74.65L36.196877 41.728127L47.540627 41.728127Q51.384377 41.728127 53.4 42.196877Q56.228127 42.8375 58.228127 44.55625Q60.8375 46.759377 62.11875 50.18125Q63.415627 53.603127 63.415627 58.009377Q63.415627 61.759377 62.540627 64.66563Q61.665627 67.55625 60.290627 69.4625Q58.93125 71.35313 57.290627 72.44688Q55.665627 73.525 53.36875 74.0875Q51.071877 74.65 48.0875 74.65L36.196877 74.65ZM40.55625 70.75938L47.5875 70.75938Q50.8375 70.75938 52.696877 70.16563Q54.55625 69.55625 55.65 68.44688Q57.196877 66.9 58.05625 64.29063Q58.93125 61.665627 58.93125 57.93125Q58.93125 52.775 57.228127 50.009377Q55.540627 47.228127 53.11875 46.275Q51.353127 45.603127 47.478127 45.603127L40.55625 45.603127L40.55625 70.75938ZM67.18125 62.728127Q67.18125 56.103127 70.86875 52.9Q73.93125 50.259377 78.36875 50.259377Q83.275 50.259377 86.4 53.478127Q89.525 56.696877 89.525 62.384377Q89.525 66.99375 88.13438 69.63438Q86.75938 72.275 84.11875 73.74375Q81.47813 75.19688 78.36875 75.19688Q73.35313 75.19688 70.25938 71.97813Q67.18125 68.75938 67.18125 62.728127ZM71.3375 62.728127Q71.3375 67.30625 73.3375 69.5875Q75.3375 71.86875 78.36875 71.86875Q81.36875 71.86875 83.36875 69.57188Q85.36875 67.275 85.36875 62.5875Q85.36875 58.165627 83.35313 55.884377Q81.35313 53.603127 78.36875 53.603127Q75.3375 53.603127 73.3375 55.86875Q71.3375 58.134377 71.3375 62.728127ZM110.24375 65.91563L114.22813 66.43125Q113.57188 70.54063 110.88438 72.86875Q108.19688 75.19688 104.29063 75.19688Q99.4 75.19688 96.41563 71.99375Q93.44688 68.79063 93.44688 62.80625Q93.44688 58.946877 94.72813 56.05625Q96.00938 53.15 98.61875 51.7125Q101.24375 50.259377 104.32188 50.259377Q108.19688 50.259377 110.66563 52.228127Q113.15 54.18125 113.8375 57.80625L109.91563 58.415627Q109.35313 56.009377 107.91563 54.80625Q106.49375 53.5875 104.47813 53.5875Q101.41563 53.5875 99.50938 55.775Q97.60313 57.9625 97.60313 62.696877Q97.60313 67.50938 99.44688 69.69688Q101.29063 71.86875 104.24375 71.86875Q106.63438 71.86875 108.22813 70.41563Q109.82188 68.94688 110.24375 65.91563ZM117.7125 74.65L117.7125 41.728127L121.74375 41.728127L121.74375 60.49375L131.32187 50.790627L136.55624 50.790627L127.43125 59.65L137.47812 74.65L132.47812 74.65L124.60313 62.446877L121.74375 65.19688L121.74375 74.65L117.7125 74.65ZM157.00937 66.9625L161.19687 67.47813Q160.19687 71.15 157.525 73.18125Q154.85312 75.19688 150.69687 75.19688Q145.4625 75.19688 142.4 71.97813Q139.3375 68.74375 139.3375 62.93125Q139.3375 56.9 142.43124 53.5875Q145.54062 50.259377 150.47812 50.259377Q155.25937 50.259377 158.29062 53.525Q161.32187 56.775 161.32187 62.68125Q161.32187 63.040627 161.30624 63.759377L143.50937 63.759377Q143.74374 67.68125 145.72812 69.775Q147.72812 71.86875 150.72812 71.86875Q152.94687 71.86875 154.50937 70.69688Q156.0875 69.525 157.00937 66.9625ZM143.74374 60.43125L157.05624 60.43125Q156.79062 57.415627 155.525 55.915627Q153.60312 53.5875 150.525 53.5875Q147.72812 53.5875 145.8375 55.446877Q143.94687 57.30625 143.74374 60.43125ZM166.63437 74.65L166.63437 50.790627L170.275 50.790627L170.275 54.415627Q171.66562 51.86875 172.8375 51.071877Q174.025 50.259377 175.44687 50.259377Q177.49374 50.259377 179.60312 51.55625L178.2125 55.30625Q176.72812 54.43125 175.24374 54.43125Q173.91562 54.43125 172.85312 55.228127Q171.80624 56.025 171.35312 57.446877Q170.68124 59.603127 170.68124 62.165627L170.68124 74.65L166.63437 74.65ZM195.94687 74.65L195.94687 41.728127L200.29062 41.728127L200.29062 74.65L195.94687 74.65ZM206.68124 74.65L206.68124 50.790627L210.30624 50.790627L210.30624 54.15Q211.41562 52.384377 213.275 51.321877Q215.15 50.259377 217.525 50.259377Q220.18124 50.259377 221.86874 51.36875Q223.57187 52.4625 224.275 54.43125Q227.10312 50.259377 231.63437 50.259377Q235.18124 50.259377 237.0875 52.228127Q239.00937 54.18125 239.00937 58.275L239.00937 74.65L234.97812 74.65L234.97812 59.61875Q234.97812 57.196877 234.5875 56.134377Q234.19687 55.05625 233.16562 54.415627Q232.13437 53.759377 230.74374 53.759377Q228.22812 53.759377 226.55624 55.43125Q224.9 57.103127 224.9 60.790627L224.9 74.65L220.85312 74.65L220.85312 59.15Q220.85312 56.4625 219.86874 55.11875Q218.88437 53.759377 216.63437 53.759377Q214.93124 53.759377 213.47812 54.665627Q212.025 55.55625 211.36874 57.290627Q210.72812 59.009377 210.72812 62.275L210.72812 74.65L206.68124 74.65ZM260.24374 71.7125Q258.00937 73.61875 255.93124 74.41563Q253.85312 75.19688 251.4625 75.19688Q247.54062 75.19688 245.41562 73.275Q243.30624 71.35313 243.30624 68.35313Q243.30624 66.60313 244.10312 65.16563Q244.9 63.7125 246.19687 62.8375Q247.49374 61.9625 249.10312 61.509377Q250.29062 61.196877 252.69687 60.9Q257.60312 60.321877 259.91562 59.509377Q259.93124 58.68125 259.93124 58.4625Q259.93124 55.978127 258.79062 54.978127Q257.24374 53.603127 254.18124 53.603127Q251.3375 53.603127 249.97812 54.603127Q248.61874 55.603127 247.9625 58.134377L244.00937 57.603127Q244.54062 55.05625 245.775 53.509377Q247.025 51.946877 249.35312 51.103127Q251.69687 50.259377 254.775 50.259377Q257.82187 50.259377 259.72812 50.978127Q261.63437 51.696877 262.525 52.790627Q263.43124 53.86875 263.79062 55.540627Q263.99374 56.571877 263.99374 59.259377L263.99374 64.65Q263.99374 70.29063 264.24374 71.79063Q264.50937 73.275 265.275 74.65L261.05624 74.65Q260.43124 73.38438 260.24374 71.7125ZM259.91562 62.68125Q257.7125 63.571877 253.30624 64.2125Q250.82187 64.57188 249.775 65.025Q248.74374 65.4625 248.18124 66.3375Q247.61874 67.19688 247.61874 68.24375Q247.61874 69.86875 248.8375 70.94688Q250.07187 72.025 252.43124 72.025Q254.775 72.025 256.5875 71.00938Q258.4 69.97813 259.25937 68.19688Q259.91562 66.8375 259.91562 64.16563L259.91562 62.68125ZM269.94687 76.63438L273.86874 77.2125Q274.11874 79.025 275.24374 79.86875Q276.74374 80.97813 279.35312 80.97813Q282.16562 80.97813 283.68124 79.85313Q285.2125 78.74375 285.75937 76.7125Q286.07187 75.47813 286.04062 71.525Q283.4 74.65 279.44687 74.65Q274.525 74.65 271.82187 71.10313Q269.13437 67.55625 269.13437 62.5875Q269.13437 59.18125 270.36874 56.290627Q271.60312 53.4 273.94687 51.8375Q276.29062 50.259377 279.4625 50.259377Q283.68124 50.259377 286.43124 53.665627L286.43124 50.790627L290.15 50.790627L290.15 71.41563Q290.15 76.99375 289.00937 79.30625Q287.88437 81.63438 285.41562 82.97813Q282.9625 84.3375 279.36874 84.3375Q275.10312 84.3375 272.47812 82.41563Q269.85312 80.49375 269.94687 76.63438ZM273.29062 62.290627Q273.29062 66.99375 275.15 69.15Q277.00937 71.30625 279.82187 71.30625Q282.60312 71.30625 284.49374 69.16563Q286.38437 67.00938 286.38437 62.43125Q286.38437 58.05625 284.43124 55.8375Q282.49374 53.603127 279.75937 53.603127Q277.05624 53.603127 275.16562 55.790627Q273.29062 57.978127 273.29062 62.290627ZM313.00937 66.9625L317.19687 67.47813Q316.19687 71.15 313.525 73.18125Q310.85312 75.19688 306.69687 75.19688Q301.4625 75.19688 298.4 71.97813Q295.3375 68.74375 295.3375 62.93125Q295.3375 56.9 298.43124 53.5875Q301.54062 50.259377 306.47812 50.259377Q311.25937 50.259377 314.29062 53.525Q317.32187 56.775 317.32187 62.68125Q317.32187 63.040627 317.30624 63.759377L299.50937 63.759377Q299.74374 67.68125 301.72812 69.775Q303.72812 71.86875 306.72812 71.86875Q308.94687 71.86875 310.50937 70.69688Q312.0875 69.525 313.00937 66.9625ZM299.74374 60.43125L313.05624 60.43125Q312.79062 57.415627 311.525 55.915627Q309.60312 53.5875 306.525 53.5875Q303.72812 53.5875 301.8375 55.446877Q299.94687 57.30625 299.74374 60.43125ZM336.25937 74.65L336.25937 41.728127L350.86874 41.728127Q355.275 41.728127 357.55624 42.61875Q359.85312 43.49375 361.2125 45.74375Q362.5875 47.99375 362.5875 50.7125Q362.5875 54.2125 360.32187 56.61875Q358.05624 59.009377 353.32187 59.665627Q355.04062 60.49375 355.94687 61.30625Q357.85312 63.05625 359.55624 65.68125L365.29062 74.65L359.80624 74.65L355.44687 67.80625Q353.54062 64.8375 352.30624 63.275Q351.07187 61.696877 350.0875 61.071877Q349.11874 60.43125 348.10312 60.18125Q347.36874 60.025 345.68124 60.025L340.61874 60.025L340.61874 74.65L336.25937 74.65ZM340.61874 56.259377L349.99374 56.259377Q352.97812 56.259377 354.66562 55.65Q356.35312 55.025 357.22812 53.665627Q358.10312 52.30625 358.10312 50.7125Q358.10312 48.36875 356.4 46.86875Q354.7125 45.353127 351.04062 45.353127L340.61874 45.353127L340.61874 56.259377ZM385.00937 66.9625L389.19687 67.47813Q388.19687 71.15 385.525 73.18125Q382.85312 75.19688 378.69687 75.19688Q373.4625 75.19688 370.4 71.97813Q367.3375 68.74375 367.3375 62.93125Q367.3375 56.9 370.43124 53.5875Q373.54062 50.259377 378.47812 50.259377Q383.25937 50.259377 386.29062 53.525Q389.32187 56.775 389.32187 62.68125Q389.32187 63.040627 389.30624 63.759377L371.50937 63.759377Q371.74374 67.68125 373.72812 69.775Q375.72812 71.86875 378.72812 71.86875Q380.94687 71.86875 382.50937 70.69688Q384.0875 69.525 385.00937 66.9625ZM371.74374 60.43125L385.05624 60.43125Q384.79062 57.415627 383.525 55.915627Q381.60312 53.5875 378.525 53.5875Q375.72812 53.5875 373.8375 55.446877Q371.94687 57.30625 371.74374 60.43125ZM410.16562 74.65L410.16562 71.63438Q407.88437 75.19688 403.49374 75.19688Q400.63437 75.19688 398.24374 73.61875Q395.85312 72.04063 394.54062 69.22813Q393.22812 66.4 393.22812 62.74375Q393.22812 59.18125 394.41562 56.275Q395.60312 53.353127 397.97812 51.80625Q400.36874 50.259377 403.30624 50.259377Q405.4625 50.259377 407.15 51.165627Q408.8375 52.071877 409.88437 53.540627L409.88437 41.728127L413.91562 41.728127L413.91562 74.65L410.16562 74.65ZM397.38437 62.74375Q397.38437 67.32188 399.30624 69.60313Q401.24374 71.86875 403.86874 71.86875Q406.525 71.86875 408.36874 69.69688Q410.22812 67.525 410.22812 63.0875Q410.22812 58.18125 408.3375 55.9Q406.44687 53.603127 403.69687 53.603127Q400.99374 53.603127 399.18124 55.80625Q397.38437 58.009377 397.38437 62.74375ZM436.32187 74.65L436.32187 71.15Q433.525 75.19688 428.74374 75.19688Q426.63437 75.19688 424.80624 74.38438Q422.97812 73.57188 422.0875 72.35313Q421.19687 71.11875 420.8375 69.35313Q420.5875 68.16563 420.5875 65.57188L420.5875 50.790627L424.63437 50.790627L424.63437 64.025Q424.63437 67.19688 424.88437 68.29063Q425.25937 69.88438 426.49374 70.80625Q427.72812 71.7125 429.55624 71.7125Q431.36874 71.7125 432.9625 70.775Q434.55624 69.8375 435.2125 68.24375Q435.88437 66.63438 435.88437 63.571877L435.88437 50.790627L439.93124 50.790627L439.93124 74.65L436.32187 74.65ZM462.24374 65.91563L466.22812 66.43125Q465.57187 70.54063 462.88437 72.86875Q460.19687 75.19688 456.29062 75.19688Q451.4 75.19688 448.41562 71.99375Q445.44687 68.79063 445.44687 62.80625Q445.44687 58.946877 446.72812 56.05625Q448.00937 53.15 450.61874 51.7125Q453.24374 50.259377 456.32187 50.259377Q460.19687 50.259377 462.66562 52.228127Q465.15 54.18125 465.8375 57.80625L461.91562 58.415627Q461.35312 56.009377 459.91562 54.80625Q458.49374 53.5875 456.47812 53.5875Q453.41562 53.5875 451.50937 55.775Q449.60312 57.9625 449.60312 62.696877Q449.60312 67.50938 451.44687 69.69688Q453.29062 71.86875 456.24374 71.86875Q458.63437 71.86875 460.22812 70.41563Q461.82187 68.94688 462.24374 65.91563ZM478.50937 71.04063L479.0875 74.60313Q477.38437 74.9625 476.04062 74.9625Q473.8375 74.9625 472.61874 74.275Q471.41562 73.57188 470.91562 72.44688Q470.43124 71.30625 470.43124 67.66563L470.43124 53.946877L467.4625 53.946877L467.4625 50.790627L470.43124 50.790627L470.43124 44.884377L474.44687 42.4625L474.44687 50.790627L478.50937 50.790627L478.50937 53.946877L474.44687 53.946877L474.44687 67.88438Q474.44687 69.61875 474.65 70.11875Q474.86874 70.60313 475.35312 70.9Q475.8375 71.19688 476.72812 71.19688Q477.41562 71.19688 478.50937 71.04063ZM482.7125 46.36875L482.7125 41.728127L486.74374 41.728127L486.74374 46.36875L482.7125 46.36875ZM482.7125 74.65L482.7125 50.790627L486.74374 50.790627L486.74374 74.65L482.7125 74.65ZM491.18124 62.728127Q491.18124 56.103127 494.86874 52.9Q497.93124 50.259377 502.36874 50.259377Q507.275 50.259377 510.4 53.478127Q513.525 56.696877 513.525 62.384377Q513.525 66.99375 512.1344 69.63438Q510.75937 72.275 508.11874 73.74375Q505.47812 75.19688 502.36874 75.19688Q497.35312 75.19688 494.25937 71.97813Q491.18124 68.75938 491.18124 62.728127ZM495.3375 62.728127Q495.3375 67.30625 497.3375 69.5875Q499.3375 71.86875 502.36874 71.86875Q505.36874 71.86875 507.36874 69.57188Q509.36874 67.275 509.36874 62.5875Q509.36874 58.165627 507.35312 55.884377Q505.35312 53.603127 502.36874 53.603127Q499.3375 53.603127 497.3375 55.86875Q495.3375 58.134377 495.3375 62.728127ZM518.6813 74.65L518.6813 50.790627L522.3219 50.790627L522.3219 54.18125Q524.9469 50.259377 529.91565 50.259377Q532.0719 50.259377 533.8688 51.040627Q535.6813 51.80625 536.5719 53.071877Q537.47815 54.321877 537.8375 56.05625Q538.0719 57.18125 538.0719 59.978127L538.0719 74.65L534.025 74.65L534.025 60.134377Q534.025 57.665627 533.5563 56.446877Q533.0875 55.228127 531.8844 54.49375Q530.6813 53.759377 529.0563 53.759377Q526.47815 53.759377 524.60315 55.4Q522.72815 57.040627 522.72815 61.61875L522.72815 74.65L518.6813 74.65ZM565.41565 84.3375Q562.0563 80.10313 559.7438 74.44688Q557.4313 68.79063 557.4313 62.728127Q557.4313 57.384377 559.16565 52.478127Q561.1813 46.790627 565.41565 41.165627L568.3063 41.165627Q565.5875 45.8375 564.7125 47.8375Q563.3375 50.93125 562.5563 54.30625Q561.5875 58.49375 561.5875 62.74375Q561.5875 73.55625 568.3063 84.3375L565.41565 84.3375ZM573.025 74.65L573.025 41.728127L577.3844 41.728127L577.3844 70.75938L593.5875 70.75938L593.5875 74.65L573.025 74.65ZM615.0094 66.9625L619.1969 67.47813Q618.1969 71.15 615.525 73.18125Q612.85315 75.19688 608.6969 75.19688Q603.4625 75.19688 600.4 71.97813Q597.3375 68.74375 597.3375 62.93125Q597.3375 56.9 600.4313 53.5875Q603.54065 50.259377 608.47815 50.259377Q613.2594 50.259377 616.29065 53.525Q619.3219 56.775 619.3219 62.68125Q619.3219 63.040627 619.3063 63.759377L601.5094 63.759377Q601.7438 67.68125 603.72815 69.775Q605.72815 71.86875 608.72815 71.86875Q610.9469 71.86875 612.5094 70.69688Q614.0875 69.525 615.0094 66.9625ZM601.7438 60.43125L615.0563 60.43125Q614.79065 57.415627 613.525 55.915627Q611.60315 53.5875 608.525 53.5875Q605.72815 53.5875 603.8375 55.446877Q601.9469 57.30625 601.7438 60.43125ZM623.0719 67.525L627.0563 66.9Q627.4 69.30625 628.9313 70.5875Q630.47815 71.86875 633.2438 71.86875Q636.025 71.86875 637.3688 70.74375Q638.72815 69.60313 638.72815 68.07188Q638.72815 66.69688 637.525 65.91563Q636.6969 65.36875 633.4 64.54063Q628.9469 63.415627 627.22815 62.603127Q625.5094 61.775 624.6188 60.3375Q623.7438 58.884377 623.7438 57.134377Q623.7438 55.540627 624.4625 54.18125Q625.1969 52.821877 626.4625 51.915627Q627.4 51.228127 629.025 50.74375Q630.65 50.259377 632.525 50.259377Q635.3219 50.259377 637.4469 51.071877Q639.5719 51.86875 640.5875 53.259377Q641.60315 54.634377 641.97815 56.946877L638.025 57.49375Q637.7594 55.65 636.4625 54.61875Q635.16565 53.5875 632.8063 53.5875Q630.025 53.5875 628.8375 54.509377Q627.65 55.415627 627.65 56.665627Q627.65 57.446877 628.1344 58.071877Q628.6344 58.728127 629.6969 59.15Q630.29065 59.36875 633.2594 60.18125Q637.5563 61.3375 639.2438 62.071877Q640.9469 62.790627 641.9 64.18125Q642.8688 65.57188 642.8688 67.63438Q642.8688 69.66563 641.6969 71.44688Q640.525 73.22813 638.29065 74.2125Q636.0719 75.19688 633.2594 75.19688Q628.6188 75.19688 626.1813 73.25938Q623.7438 71.32188 623.0719 67.525ZM646.0719 67.525L650.0563 66.9Q650.4 69.30625 651.9313 70.5875Q653.47815 71.86875 656.2438 71.86875Q659.025 71.86875 660.3688 70.74375Q661.72815 69.60313 661.72815 68.07188Q661.72815 66.69688 660.525 65.91563Q659.6969 65.36875 656.4 64.54063Q651.9469 63.415627 650.22815 62.603127Q648.5094 61.775 647.6188 60.3375Q646.7438 58.884377 646.7438 57.134377Q646.7438 55.540627 647.4625 54.18125Q648.1969 52.821877 649.4625 51.915627Q650.4 51.228127 652.025 50.74375Q653.65 50.259377 655.525 50.259377Q658.3219 50.259377 660.4469 51.071877Q662.5719 51.86875 663.5875 53.259377Q664.60315 54.634377 664.97815 56.946877L661.025 57.49375Q660.7594 55.65 659.4625 54.61875Q658.16565 53.5875 655.8063 53.5875Q653.025 53.5875 651.8375 54.509377Q650.65 55.415627 650.65 56.665627Q650.65 57.446877 651.1344 58.071877Q651.6344 58.728127 652.6969 59.15Q653.29065 59.36875 656.2594 60.18125Q660.5563 61.3375 662.2438 62.071877Q663.9469 62.790627 664.9 64.18125Q665.8688 65.57188 665.8688 67.63438Q665.8688 69.66563 664.6969 71.44688Q663.525 73.22813 661.29065 74.2125Q659.0719 75.19688 656.2594 75.19688Q651.6188 75.19688 649.1813 73.25938Q646.7438 71.32188 646.0719 67.525ZM683.7125 46.36875L683.7125 41.728127L687.7438 41.728127L687.7438 46.36875L683.7125 46.36875ZM683.7125 74.65L683.7125 50.790627L687.7438 50.790627L687.7438 74.65L683.7125 74.65ZM692.0719 67.525L696.0563 66.9Q696.4 69.30625 697.9313 70.5875Q699.47815 71.86875 702.2438 71.86875Q705.025 71.86875 706.3688 70.74375Q707.72815 69.60313 707.72815 68.07188Q707.72815 66.69688 706.525 65.91563Q705.6969 65.36875 702.4 64.54063Q697.9469 63.415627 696.22815 62.603127Q694.5094 61.775 693.6188 60.3375Q692.7438 58.884377 692.7438 57.134377Q692.7438 55.540627 693.4625 54.18125Q694.1969 52.821877 695.4625 51.915627Q696.4 51.228127 698.025 50.74375Q699.65 50.259377 701.525 50.259377Q704.3219 50.259377 706.4469 51.071877Q708.5719 51.86875 709.5875 53.259377Q710.60315 54.634377 710.97815 56.946877L707.025 57.49375Q706.7594 55.65 705.4625 54.61875Q704.16565 53.5875 701.8063 53.5875Q699.025 53.5875 697.8375 54.509377Q696.65 55.415627 696.65 56.665627Q696.65 57.446877 697.1344 58.071877Q697.6344 58.728127 698.6969 59.15Q699.29065 59.36875 702.2594 60.18125Q706.5563 61.3375 708.2438 62.071877Q709.9469 62.790627 710.9 64.18125Q711.8688 65.57188 711.8688 67.63438Q711.8688 69.66563 710.6969 71.44688Q709.525 73.22813 707.29065 74.2125Q705.0719 75.19688 702.2594 75.19688Q697.6188 75.19688 695.1813 73.25938Q692.7438 71.32188 692.0719 67.525ZM730.025 74.65L730.025 41.728127L742.3688 41.728127Q746.15 41.728127 748.4313 42.728127Q750.7125 43.728127 751.9938 45.80625Q753.29065 47.86875 753.29065 50.15Q753.29065 52.259377 752.1344 54.11875Q750.9938 55.978127 748.6813 57.134377Q751.66565 58.009377 753.275 60.11875Q754.8844 62.228127 754.8844 65.10313Q754.8844 67.41563 753.9 69.41563Q752.9313 71.4 751.4938 72.47813Q750.0563 73.55625 747.8844 74.10313Q745.7125 74.65 742.5719 74.65L730.025 74.65ZM734.3844 55.55625L741.4938 55.55625Q744.4 55.55625 745.65 55.18125Q747.3219 54.68125 748.15 53.540627Q748.9938 52.384377 748.9938 50.665627Q748.9938 49.025 748.2125 47.775Q747.4313 46.525 745.9625 46.071877Q744.5094 45.603127 740.9625 45.603127L734.3844 45.603127L734.3844 55.55625ZM734.3844 70.75938L742.5719 70.75938Q744.6813 70.75938 745.54065 70.60313Q747.04065 70.3375 748.0563 69.7125Q749.0719 69.07188 749.7125 67.88438Q750.3688 66.68125 750.3688 65.10313Q750.3688 63.259377 749.41565 61.9Q748.47815 60.540627 746.8063 59.99375Q745.1344 59.446877 741.9938 59.446877L734.3844 59.446877L734.3844 70.75938ZM777.0094 66.9625L781.1969 67.47813Q780.1969 71.15 777.525 73.18125Q774.85315 75.19688 770.6969 75.19688Q765.4625 75.19688 762.4 71.97813Q759.3375 68.74375 759.3375 62.93125Q759.3375 56.9 762.4313 53.5875Q765.54065 50.259377 770.47815 50.259377Q775.2594 50.259377 778.29065 53.525Q781.3219 56.775 781.3219 62.68125Q781.3219 63.040627 781.3063 63.759377L763.5094 63.759377Q763.7438 67.68125 765.72815 69.775Q767.72815 71.86875 770.72815 71.86875Q772.9469 71.86875 774.5094 70.69688Q776.0875 69.525 777.0094 66.9625ZM763.7438 60.43125L777.0563 60.43125Q776.79065 57.415627 775.525 55.915627Q773.60315 53.5875 770.525 53.5875Q767.72815 53.5875 765.8375 55.446877Q763.9469 57.30625 763.7438 60.43125ZM795.5094 71.04063L796.0875 74.60313Q794.3844 74.9625 793.04065 74.9625Q790.8375 74.9625 789.6188 74.275Q788.41565 73.57188 787.91565 72.44688Q787.4313 71.30625 787.4313 67.66563L787.4313 53.946877L784.4625 53.946877L784.4625 50.790627L787.4313 50.790627L787.4313 44.884377L791.4469 42.4625L791.4469 50.790627L795.5094 50.790627L795.5094 53.946877L791.4469 53.946877L791.4469 67.88438Q791.4469 69.61875 791.65 70.11875Q791.8688 70.60313 792.35315 70.9Q792.8375 71.19688 793.72815 71.19688Q794.41565 71.19688 795.5094 71.04063ZM808.5094 71.04063L809.0875 74.60313Q807.3844 74.9625 806.04065 74.9625Q803.8375 74.9625 802.6188 74.275Q801.41565 73.57188 800.91565 72.44688Q800.4313 71.30625 800.4313 67.66563L800.4313 53.946877L797.4625 53.946877L797.4625 50.790627L800.4313 50.790627L800.4313 44.884377L804.4469 42.4625L804.4469 50.790627L808.5094 50.790627L808.5094 53.946877L804.4469 53.946877L804.4469 67.88438Q804.4469 69.61875 804.65 70.11875Q804.8688 70.60313 805.35315 70.9Q805.8375 71.19688 806.72815 71.19688Q807.41565 71.19688 808.5094 71.04063ZM829.0094 66.9625L833.1969 67.47813Q832.1969 71.15 829.525 73.18125Q826.85315 75.19688 822.6969 75.19688Q817.4625 75.19688 814.4 71.97813Q811.3375 68.74375 811.3375 62.93125Q811.3375 56.9 814.4313 53.5875Q817.54065 50.259377 822.47815 50.259377Q827.2594 50.259377 830.29065 53.525Q833.3219 56.775 833.3219 62.68125Q833.3219 63.040627 833.3063 63.759377L815.5094 63.759377Q815.7438 67.68125 817.72815 69.775Q819.72815 71.86875 822.72815 71.86875Q824.9469 71.86875 826.5094 70.69688Q828.0875 69.525 829.0094 66.9625ZM815.7438 60.43125L829.0563 60.43125Q828.79065 57.415627 827.525 55.915627Q825.60315 53.5875 822.525 53.5875Q819.72815 53.5875 817.8375 55.446877Q815.9469 57.30625 815.7438 60.43125ZM838.6344 74.65L838.6344 50.790627L842.275 50.790627L842.275 54.415627Q843.66565 51.86875 844.8375 51.071877Q846.025 50.259377 847.4469 50.259377Q849.4938 50.259377 851.60315 51.55625L850.2125 55.30625Q848.72815 54.43125 847.2438 54.43125Q845.91565 54.43125 844.85315 55.228127Q843.8063 56.025 843.35315 57.446877Q842.6813 59.603127 842.6813 62.165627L842.6813 74.65L838.6344 74.65ZM856.3375 84.3375L853.4313 84.3375Q860.15 73.55625 860.15 62.74375Q860.15 58.525 859.1813 54.36875Q858.41565 50.99375 857.0563 47.9Q856.1813 45.884377 853.4313 41.165627L856.3375 41.165627Q860.5563 46.790627 862.5719 52.478127Q864.3063 57.384377 864.3063 62.728127Q864.3063 68.79063 861.97815 74.44688Q859.65 80.10313 856.3375 84.3375Z" fill-rule="nonzero"/></svg>