<svg version="1.1" viewBox="0.0 0.0 1346.0 832.0" fill="none" stroke="none" stroke-linecap="square" stroke-miterlimit="10" width="1346" height="832" xmlns:xlink="http://www.w3.org/1999/xlink" xmlns="http://www.w3.org/2000/svg"><path fill="#000000" d="M0 0L1346.0 0L1346.0 832.0L0 832.0L0 0Z" fill-rule="nonzero"/><path stroke="#cccccc" stroke-width="1.0" stroke-linecap="butt" d="M148.5 770.5L1304.5 770.5" fill-rule="nonzero"/><path stroke="#333333" stroke-width="1.0" stroke-linecap="butt" d="M148.5 625.5L1304.5 625.5" fill-rule="nonzero"/><path stroke="#333333" stroke-width="1.0" stroke-linecap="butt" d="M148.5 480.5L1304.5 480.5" fill-rule="nonzero"/><path stroke="#333333" stroke-width="1.0" stroke-linecap="butt" d="M148.5 335.5L1304.5 335.5" fill-rule="nonzero"/><path stroke="#333333" stroke-width="1.0" stroke-linecap="butt" d="M148.5 191.5L1304.5 191.5" fill-rule="nonzero"/><clipPath id="id_0"><path d="M148.6 191.06667L1304.4 191.06667L1304.4 770.4L148.6 770.4L148.6 191.06667Z" clip-rule="nonzero"/></clipPath><path stroke="#000000" stroke-width="2.0" stroke-linecap="butt" stroke-opacity="0.0" clip-path="url(#id_0)" d="M634.0 770.0L451.0 770.0L451.0 237.0C451.0 235.89543 451.89542 235.0 453.0 235.0L632.0 235.0C633.10455 235.0 634.0 235.89543 634.0 237.0Z" fill-rule="nonzero"/><path fill="#4285f4" clip-path="url(#id_0)" d="M634.0 770.0L451.0 770.0L451.0 237.0C451.0 235.89543 451.89542 235.0 453.0 235.0L632.0 235.0C633.10455 235.0 634.0 235.89543 634.0 237.0Z" fill-rule="nonzero"/><path stroke="#000000" stroke-width="2.0" stroke-linecap="butt" stroke-opacity="0.0" clip-path="url(#id_0)" d="M819.0 770.0L636.0 770.0L636.0 570.0C636.0 568.89545 636.89545 568.0 638.0 568.0L817.0 568.0C818.10455 568.0 819.0 568.89545 819.0 570.0Z" fill-rule="nonzero"/><path fill="#ea4335" clip-path="url(#id_0)" d="M819.0 770.0L636.0 770.0L636.0 570.0C636.0 568.89545 636.89545 568.0 638.0 568.0L817.0 568.0C818.10455 568.0 819.0 568.89545 819.0 570.0Z" fill-rule="nonzero"/><path stroke="#000000" stroke-width="2.0" stroke-linecap="butt" stroke-opacity="0.0" clip-path="url(#id_0)" d="M1004.0 770.0L821.0 770.0L821.0 671.0C821.0 669.89545 821.89545 669.0 823.0 669.0L1002.0 669.0C1003.10455 669.0 1004.0 669.89545 1004.0 671.0Z" fill-rule="nonzero"/><path fill="#fbbc04" clip-path="url(#id_0)" d="M1004.0 770.0L821.0 770.0L821.0 671.0C821.0 669.89545 821.89545 669.0 823.0 669.0L1002.0 669.0C1003.10455 669.0 1004.0 669.89545 1004.0 671.0Z" fill-rule="nonzero"/><path fill="#ffffff" d="M62.693775 581.3896L62.4594 578.7021Q64.0844 578.5146 65.11565 577.8271Q66.1469 577.12396 66.78752 575.6552Q67.41252 574.18646 67.41252 572.35834Q67.41252 570.73334 66.92815 569.49896Q66.44377 568.24896 65.61565 567.6396Q64.7719 567.0302 63.7719 567.0302Q62.756275 567.0302 62.006275 567.62396Q61.256275 568.2021 60.74065 569.54584Q60.3969 570.42084 59.693775 573.37396Q58.975025 576.3271 58.350025 577.5146Q57.537525 579.06146 56.350025 579.81146Q55.162525 580.56146 53.67815 580.56146Q52.05315 580.56146 50.6469 579.6396Q49.225025 578.7177 48.49065 576.9521Q47.756275 575.17084 47.756275 572.99896Q47.756275 570.62396 48.537525 568.79584Q49.30315 566.9677 50.80315 565.99896Q52.287525 565.0146 54.17815 564.93646L54.381275 567.6552Q52.350025 567.87396 51.30315 569.1552Q50.256275 570.42084 50.256275 572.8896Q50.256275 575.4677 51.2094 576.6552Q52.1469 577.8271 53.49065 577.8271Q54.6469 577.8271 55.3969 576.98334Q56.131275 576.17084 56.92815 572.7177Q57.7094 569.24896 58.287525 567.9521Q59.162525 566.0771 60.49065 565.18646Q61.80315 564.29584 63.537525 564.29584Q65.25627 564.29584 66.7719 565.2802Q68.28752 566.24896 69.13127 568.0927Q69.9594 569.93646 69.9594 572.23334Q69.9594 575.1396 69.11565 577.12396Q68.2719 579.0927 66.56877 580.2177Q64.85002 581.3271 62.693775 581.3896ZM67.24065 554.99896L69.56877 554.62396Q69.80315 555.73334 69.80315 556.60834Q69.80315 558.04584 69.35002 558.8427Q68.8969 559.62396 68.16252 559.9521Q67.41252 560.2646 65.03752 560.2646L56.100025 560.2646L56.100025 562.2021L54.037525 562.2021L54.037525 560.2646L50.193775 560.2646L48.61565 557.6552L54.037525 557.6552L54.037525 554.99896L56.100025 554.99896L56.100025 557.6552L65.19377 557.6552Q66.31877 557.6552 66.6469 557.5146Q66.9594 557.37396 67.16252 557.06146Q67.35002 556.74896 67.35002 556.1552Q67.35002 555.7177 67.24065 554.99896ZM67.67815 542.60834Q68.92815 544.06146 69.44377 545.42084Q69.9594 546.7802 69.9594 548.3271Q69.9594 550.8896 68.7094 552.2802Q67.44377 553.6552 65.49065 553.6552Q64.35002 553.6552 63.412525 553.1396Q62.4594 552.60834 61.8969 551.7646Q61.318775 550.92084 61.037525 549.87396Q60.818775 549.0927 60.631275 547.5302Q60.256275 544.3271 59.725025 542.8271Q59.17815 542.81146 59.037525 542.81146Q57.42815 542.81146 56.7719 543.56146Q55.881275 544.56146 55.881275 546.56146Q55.881275 548.42084 56.537525 549.31146Q57.17815 550.18646 58.8344 550.62396L58.475025 553.2021Q56.818775 552.8427 55.80315 552.04584Q54.787525 551.23334 54.24065 549.7177Q53.693775 548.18646 53.693775 546.17084Q53.693775 544.18646 54.162525 542.9521Q54.631275 541.7021 55.350025 541.12396Q56.05315 540.5302 57.131275 540.29584Q57.80315 540.1552 59.568775 540.1552L63.0844 540.1552Q66.75627 540.1552 67.74065 539.99896Q68.7094 539.8271 69.60002 539.3271L69.60002 542.0771Q68.7719 542.48334 67.67815 542.60834ZM61.787525 542.8271Q62.381275 544.2646 62.787525 547.12396Q63.0219 548.74896 63.318775 549.43646Q63.61565 550.10834 64.17815 550.48334Q64.74065 550.8427 65.42815 550.8427Q66.47502 550.8427 67.17815 550.04584Q67.88127 549.23334 67.88127 547.7021Q67.88127 546.17084 67.22502 544.99896Q66.55315 543.81146 65.3969 543.24896Q64.50627 542.8271 62.756275 542.8271L61.787525 542.8271ZM69.60002 536.7802L54.037525 536.7802L54.037525 534.4052L56.3969 534.4052Q54.74065 533.49896 54.225025 532.73334Q53.693775 531.9677 53.693775 531.04584Q53.693775 529.7021 54.537525 528.3271L56.99065 529.23334Q56.412525 530.2021 56.412525 531.17084Q56.412525 532.04584 56.943775 532.73334Q57.4594 533.42084 58.381275 533.7021Q59.787525 534.1552 61.4594 534.1552L69.60002 534.1552L69.60002 536.7802ZM67.24065 520.99896L69.56877 520.62396Q69.80315 521.73334 69.80315 522.60834Q69.80315 524.04584 69.35002 524.8427Q68.8969 525.62396 68.16252 525.9521Q67.41252 526.2646 65.03752 526.2646L56.100025 526.2646L56.100025 528.2021L54.037525 528.2021L54.037525 526.2646L50.193775 526.2646L48.61565 523.6552L54.037525 523.6552L54.037525 520.99896L56.100025 520.99896L56.100025 523.6552L65.19377 523.6552Q66.31877 523.6552 66.6469 523.5146Q66.9594 523.37396 67.16252 523.06146Q67.35002 522.74896 67.35002 522.1552Q67.35002 521.7177 67.24065 520.99896ZM69.60002 508.56146L67.31877 508.56146Q69.9594 510.37396 69.9594 513.49896Q69.9594 514.87396 69.42815 516.0771Q68.8969 517.2646 68.10002 517.8427Q67.30315 518.42084 66.1469 518.6552Q65.36565 518.81146 63.67815 518.81146L54.037525 518.81146L54.037525 516.17084L62.67815 516.17084Q64.74065 516.17084 65.4594 516.0146Q66.49065 515.7646 67.0844 514.9677Q67.67815 514.1552 67.67815 512.9677Q67.67815 511.7802 67.06877 510.74896Q66.4594 509.7021 65.41252 509.2802Q64.36565 508.8427 62.381275 508.8427L54.037525 508.8427L54.037525 506.2021L69.60002 506.2021L69.60002 508.56146ZM75.56877 501.74896L54.037525 501.74896L54.037525 499.35834L56.068775 499.35834Q54.881275 498.49896 54.287525 497.43646Q53.693775 496.35834 53.693775 494.8427Q53.693775 492.8427 54.725025 491.3271Q55.74065 489.79584 57.61565 489.0302Q59.475025 488.24896 61.7094 488.24896Q64.0844 488.24896 66.00627 489.10834Q67.91252 489.9677 68.94377 491.60834Q69.9594 493.23334 69.9594 495.0302Q69.9594 496.3427 69.3969 497.4052Q68.8344 498.4521 67.99065 499.12396L75.56877 499.12396L75.56877 501.74896ZM61.912525 499.37396Q64.91252 499.37396 66.35002 498.1552Q67.78752 496.93646 67.78752 495.2021Q67.78752 493.4521 66.30315 492.2021Q64.80315 490.9521 61.693775 490.9521Q58.7094 490.9521 57.24065 492.17084Q55.756275 493.3896 55.756275 495.0927Q55.756275 496.7802 57.3344 498.0771Q58.912525 499.37396 61.912525 499.37396ZM67.24065 470.99896L69.56877 470.62396Q69.80315 471.73334 69.80315 472.60834Q69.80315 474.04584 69.35002 474.8427Q68.8969 475.62396 68.16252 475.9521Q67.41252 476.2646 65.03752 476.2646L56.100025 476.2646L56.100025 478.2021L54.037525 478.2021L54.037525 476.2646L50.193775 476.2646L48.61565 473.6552L54.037525 473.6552L54.037525 470.99896L56.100025 470.99896L56.100025 473.6552L65.19377 473.6552Q66.31877 473.6552 66.6469 473.5146Q66.9594 473.37396 67.16252 473.06146Q67.35002 472.74896 67.35002 472.1552Q67.35002 471.7177 67.24065 470.99896ZM51.162525 468.73334L48.131275 468.73334L48.131275 466.10834L51.162525 466.10834L51.162525 468.73334ZM69.60002 468.73334L54.037525 468.73334L54.037525 466.10834L69.60002 466.10834L69.60002 468.73334ZM69.60002 461.74896L54.037525 461.74896L54.037525 459.3896L56.225025 459.3896Q55.0844 458.67084 54.3969 457.4521Q53.693775 456.23334 53.693775 454.68646Q53.693775 452.9521 54.412525 451.8427Q55.131275 450.73334 56.412525 450.2802Q53.693775 448.43646 53.693775 445.48334Q53.693775 443.17084 54.975025 441.92084Q56.256275 440.67084 58.92815 440.67084L69.60002 440.67084L69.60002 443.29584L59.80315 443.29584Q58.225025 443.29584 57.5219 443.56146Q56.818775 443.81146 56.3969 444.48334Q55.975025 445.1552 55.975025 446.06146Q55.975025 447.7021 57.068775 448.79584Q58.162525 449.87396 60.568775 449.87396L69.60002 449.87396L69.60002 452.5146L59.49065 452.5146Q57.74065 452.5146 56.86565 453.1552Q55.975025 453.79584 55.975025 455.2646Q55.975025 456.37396 56.568775 457.3271Q57.1469 458.2646 58.2719 458.7021Q59.3969 459.12396 61.5219 459.12396L69.60002 459.12396L69.60002 461.74896ZM64.5844 426.10834L64.92815 423.37396Q67.31877 424.0302 68.6469 425.7802Q69.9594 427.5146 69.9594 430.2177Q69.9594 433.6396 67.85002 435.6396Q65.74065 437.6396 61.9594 437.6396Q58.0219 437.6396 55.86565 435.62396Q53.693775 433.5927 53.693775 430.37396Q53.693775 427.24896 55.818775 425.2802Q57.943775 423.29584 61.787525 423.29584Q62.0219 423.29584 62.49065 423.31146L62.49065 434.9052Q65.05315 434.7646 66.42815 433.4677Q67.78752 432.1552 67.78752 430.2021Q67.78752 428.7646 67.0219 427.73334Q66.25627 426.7021 64.5844 426.10834ZM60.3344 434.7646L60.3344 426.0771Q58.36565 426.24896 57.381275 427.0771Q55.86565 428.3271 55.86565 430.3427Q55.86565 432.1552 57.0844 433.3896Q58.287525 434.62396 60.3344 434.7646ZM69.60002 420.06146L66.60002 420.06146L66.60002 417.06146L69.60002 417.06146Q71.25627 417.06146 72.2719 417.6552Q73.28752 418.23334 73.85002 419.5146L72.72502 420.24896Q72.35002 419.4052 71.63127 419.0146Q70.92815 418.62396 69.60002 418.5771L69.60002 420.06146ZM64.9594 405.81146L64.55315 403.2021Q66.11565 402.98334 66.9594 401.98334Q67.78752 400.98334 67.78752 399.17084Q67.78752 397.35834 67.05315 396.48334Q66.30315 395.5927 65.30315 395.5927Q64.41252 395.5927 63.8969 396.37396Q63.55315 396.92084 63.006275 399.0771Q62.2719 401.9677 61.74065 403.0927Q61.2094 404.2177 60.2719 404.79584Q59.318775 405.37396 58.17815 405.37396Q57.131275 405.37396 56.256275 404.9052Q55.36565 404.42084 54.7719 403.5927Q54.318775 402.98334 54.006275 401.92084Q53.693775 400.85834 53.693775 399.6396Q53.693775 397.81146 54.225025 396.43646Q54.74065 395.04584 55.6469 394.3896Q56.55315 393.7177 58.05315 393.48334L58.412525 396.06146Q57.2094 396.23334 56.537525 397.0771Q55.86565 397.92084 55.86565 399.4521Q55.86565 401.2646 56.4594 402.04584Q57.05315 402.8271 57.86565 402.8271Q58.381275 402.8271 58.787525 402.49896Q59.2094 402.17084 59.49065 401.48334Q59.631275 401.0927 60.162525 399.1552Q60.912525 396.35834 61.3969 395.2646Q61.86565 394.1552 62.7719 393.5302Q63.67815 392.8896 65.0219 392.8896Q66.35002 392.8896 67.5219 393.6552Q68.67815 394.42084 69.31877 395.87396Q69.9594 397.3271 69.9594 399.1552Q69.9594 402.18646 68.69377 403.7802Q67.42815 405.37396 64.9594 405.81146Z" fill-rule="nonzero"/><path fill="#ffffff" d="M136.1 770.16565Q136.1 768.6344 136.4125 767.7125Q136.725 766.775 137.33438 766.275Q137.95938 765.775 138.89688 765.775Q139.58438 765.775 140.1 766.0563Q140.63126 766.3375 140.975 766.8688Q141.31876 767.3844 141.50626 768.1344Q141.69376 768.8844 141.69376 770.16565Q141.69376 771.6813 141.38126 772.60315Q141.08438 773.525 140.45938 774.04065Q139.85 774.54065 138.89688 774.54065Q137.6625 774.54065 136.94376 773.65Q136.1 772.5875 136.1 770.16565ZM137.17813 770.16565Q137.17813 772.275 137.67813 772.97815Q138.17813 773.6813 138.89688 773.6813Q139.63126 773.6813 140.11563 772.97815Q140.61563 772.275 140.61563 770.16565Q140.61563 768.04065 140.11563 767.35315Q139.63126 766.65 138.88126 766.65Q138.1625 766.65 137.725 767.2594Q137.17813 768.04065 137.17813 770.16565Z" fill-rule="nonzero"/><path fill="#ffffff" d="M140.06876 629.56665L139.02188 629.56665L139.02188 622.8479Q138.63126 623.2073 138.00626 623.5823Q137.39688 623.94165 136.9125 624.1135L136.9125 623.0979Q137.7875 622.676 138.44376 622.0979Q139.11563 621.50415 139.39688 620.94165L140.06876 620.94165L140.06876 629.56665Z" fill-rule="nonzero"/><path fill="#ffffff" d="M141.64688 483.7177L141.64688 484.73334L135.95938 484.73334Q135.95938 484.35834 136.08438 483.99896Q136.30313 483.42084 136.77188 482.85834Q137.25626 482.29584 138.1625 481.56146Q139.56876 480.4052 140.05313 479.73334Q140.55313 479.06146 140.55313 478.4677Q140.55313 477.8427 140.1 477.42084Q139.64688 476.98334 138.92813 476.98334Q138.1625 476.98334 137.70938 477.43646Q137.25626 477.8896 137.24063 478.7021L136.1625 478.5927Q136.27188 477.37396 136.99063 476.74896Q137.725 476.10834 138.95938 476.10834Q140.19376 476.10834 140.9125 476.79584Q141.63126 477.48334 141.63126 478.49896Q141.63126 479.0146 141.4125 479.5146Q141.20938 479.99896 140.70938 480.56146Q140.225 481.10834 139.1 482.06146Q138.14688 482.85834 137.86563 483.1552Q137.6 483.43646 137.42813 483.7177L141.64688 483.7177Z" fill-rule="nonzero"/><path fill="#ffffff" d="M136.1 337.63437L137.1625 337.49374Q137.33438 338.38437 137.77188 338.79062Q138.20938 339.18124 138.83438 339.18124Q139.58438 339.18124 140.1 338.66562Q140.61563 338.15 140.61563 337.38437Q140.61563 336.66562 140.13126 336.19687Q139.6625 335.7125 138.92813 335.7125Q138.63126 335.7125 138.17813 335.8375L138.30313 334.9Q138.4125 334.91562 138.475 334.91562Q139.14688 334.91562 139.67813 334.57187Q140.225 334.2125 140.225 333.47812Q140.225 332.9 139.83438 332.525Q139.44376 332.13437 138.81876 332.13437Q138.20938 332.13437 137.7875 332.525Q137.38126 332.91562 137.27188 333.68124L136.20938 333.49374Q136.39688 332.44687 137.08438 331.86874Q137.77188 331.275 138.7875 331.275Q139.49063 331.275 140.08438 331.5875Q140.67813 331.88437 140.99063 332.4Q141.30313 332.91562 141.30313 333.50937Q141.30313 334.05624 141.00626 334.525Q140.70938 334.97812 140.13126 335.24374Q140.88126 335.41562 141.30313 335.97812Q141.725 336.525 141.725 337.36874Q141.725 338.49374 140.89688 339.275Q140.08438 340.05624 138.83438 340.05624Q137.70938 340.05624 136.95938 339.38437Q136.20938 338.69687 136.1 337.63437Z" fill-rule="nonzero"/><path fill="#ffffff" d="M139.475 195.06667L139.475 193.00417L135.75626 193.00417L135.75626 192.03542L139.67813 186.47292L140.5375 186.47292L140.5375 192.03542L141.69376 192.03542L141.69376 193.00417L140.5375 193.00417L140.5375 195.06667L139.475 195.06667ZM139.475 192.03542L139.475 188.17604L136.7875 192.03542L139.475 192.03542Z" fill-rule="nonzero"/><path fill="#000000" d="M687.5469 784.6344L688.6094 784.54065Q688.6875 785.1969 688.96875 785.60315Q689.25 786.0094 689.8281 786.275Q690.4219 786.525 691.15625 786.525Q691.7969 786.525 692.2969 786.3375Q692.7969 786.1344 693.03125 785.8063Q693.28125 785.4625 693.28125 785.0719Q693.28125 784.66565 693.0469 784.3688Q692.8125 784.0563 692.28125 783.85315Q691.9219 783.7125 690.7344 783.4313Q689.5625 783.15 689.09375 782.9Q688.46875 782.5719 688.1719 782.10315Q687.875 781.6188 687.875 781.025Q687.875 780.3844 688.2344 779.8219Q688.6094 779.2438 689.3125 778.9625Q690.03125 778.66565 690.8906 778.66565Q691.84375 778.66565 692.5781 778.97815Q693.3125 779.275 693.7031 779.8844Q694.09375 780.47815 694.125 781.22815L693.03125 781.3063Q692.9375 780.4938 692.4219 780.0875Q691.9219 779.66565 690.9375 779.66565Q689.90625 779.66565 689.4375 780.04065Q688.96875 780.41565 688.96875 780.9469Q688.96875 781.41565 689.2969 781.7125Q689.625 782.0094 691.0 782.3219Q692.3906 782.6344 692.90625 782.8688Q693.65625 783.22815 694.0156 783.7594Q694.375 784.275 694.375 784.97815Q694.375 785.66565 693.9844 786.275Q693.59375 786.8688 692.8594 787.2125Q692.125 787.54065 691.2031 787.54065Q690.03125 787.54065 689.2344 787.2125Q688.4531 786.8688 688.0 786.1813Q687.5625 785.4938 687.5469 784.6344ZM698.09375 786.4625L698.25 787.3844Q697.7969 787.47815 697.4531 787.47815Q696.875 787.47815 696.5625 787.3063Q696.25 787.1188 696.1094 786.8219Q695.9844 786.525 695.9844 785.5719L695.9844 781.9938L695.21875 781.9938L695.21875 781.1813L695.9844 781.1813L695.9844 779.6344L697.03125 779.0094L697.03125 781.1813L698.09375 781.1813L698.09375 781.9938L697.03125 781.9938L697.03125 785.6344Q697.03125 786.0875 697.0781 786.2125Q697.1406 786.3375 697.2656 786.41565Q697.3906 786.4938 697.625 786.4938Q697.8125 786.4938 698.09375 786.4625ZM702.8594 786.6344Q702.2656 787.1344 701.71875 787.3375Q701.1875 787.54065 700.5625 787.54065Q699.53125 787.54065 698.9844 787.04065Q698.4375 786.54065 698.4375 785.7594Q698.4375 785.3063 698.6406 784.9313Q698.84375 784.54065 699.1875 784.3219Q699.53125 784.0875 699.9531 783.97815Q700.25 783.8844 700.8906 783.8063Q702.15625 783.66565 702.7656 783.4469Q702.7656 783.22815 702.7656 783.1813Q702.7656 782.525 702.46875 782.2594Q702.0625 781.91565 701.2656 781.91565Q700.53125 781.91565 700.1719 782.1813Q699.8125 782.4313 699.6406 783.0875L698.6094 782.9469Q698.75 782.29065 699.0781 781.8844Q699.40625 781.47815 700.0156 781.2594Q700.625 781.04065 701.4219 781.04065Q702.21875 781.04065 702.71875 781.22815Q703.21875 781.41565 703.4531 781.6969Q703.6875 781.97815 703.78125 782.41565Q703.8281 782.6813 703.8281 783.3844L703.8281 784.79065Q703.8281 786.2594 703.8906 786.65Q703.96875 787.04065 704.1719 787.4L703.0625 787.4Q702.90625 787.0719 702.8594 786.6344ZM702.7656 784.275Q702.1875 784.5094 701.0469 784.6813Q700.3906 784.775 700.125 784.9Q699.8594 785.0094 699.7031 785.22815Q699.5625 785.4469 699.5625 785.72815Q699.5625 786.15 699.875 786.4313Q700.2031 786.7125 700.8125 786.7125Q701.4219 786.7125 701.8906 786.4469Q702.375 786.1813 702.59375 785.7125Q702.7656 785.35315 702.7656 784.66565L702.7656 784.275ZM705.78125 787.4L705.78125 781.1813L706.7344 781.1813L706.7344 782.1188Q707.09375 781.4625 707.3906 781.2594Q707.7031 781.04065 708.0781 781.04065Q708.6094 781.04065 709.15625 781.3688L708.7969 782.35315Q708.40625 782.1188 708.03125 782.1188Q707.6719 782.1188 707.3906 782.3375Q707.125 782.54065 707.0156 782.91565Q706.8281 783.47815 706.8281 784.1344L706.8281 787.4L705.78125 787.4ZM712.09375 786.4625L712.25 787.3844Q711.7969 787.47815 711.4531 787.47815Q710.875 787.47815 710.5625 787.3063Q710.25 787.1188 710.1094 786.8219Q709.9844 786.525 709.9844 785.5719L709.9844 781.9938L709.21875 781.9938L709.21875 781.1813L709.9844 781.1813L709.9844 779.6344L711.03125 779.0094L711.03125 781.1813L712.09375 781.1813L712.09375 781.9938L711.03125 781.9938L711.03125 785.6344Q711.03125 786.0875 711.0781 786.2125Q711.1406 786.3375 711.2656 786.41565Q711.3906 786.4938 711.625 786.4938Q711.8125 786.4938 712.09375 786.4625ZM716.875 787.4L716.875 786.47815Q716.1406 787.54065 714.8906 787.54065Q714.34375 787.54065 713.8594 787.3375Q713.3906 787.1188 713.15625 786.8063Q712.9219 786.47815 712.8281 786.0094Q712.7656 785.7125 712.7656 785.025L712.7656 781.1813L713.8281 781.1813L713.8281 784.6344Q713.8281 785.4469 713.8906 785.7438Q713.9844 786.15 714.2969 786.4Q714.625 786.6344 715.1094 786.6344Q715.5781 786.6344 715.9844 786.4Q716.40625 786.15 716.5781 785.72815Q716.7656 785.3063 716.7656 784.5094L716.7656 781.1813L717.8125 781.1813L717.8125 787.4L716.875 787.4ZM719.7969 789.79065L719.7969 781.1813L720.75 781.1813L720.75 781.97815Q721.09375 781.5094 721.5156 781.275Q721.9531 781.04065 722.5625 781.04065Q723.3594 781.04065 723.96875 781.4469Q724.5781 781.85315 724.875 782.60315Q725.1875 783.35315 725.1875 784.2438Q725.1875 785.1969 724.84375 785.9625Q724.5156 786.72815 723.8594 787.1344Q723.2031 787.54065 722.4844 787.54065Q721.9531 787.54065 721.53125 787.3219Q721.1094 787.0875 720.84375 786.7594L720.84375 789.79065L719.7969 789.79065ZM720.75 784.3219Q720.75 785.525 721.2344 786.10315Q721.71875 786.66565 722.40625 786.66565Q723.1094 786.66565 723.6094 786.0719Q724.1094 785.47815 724.1094 784.22815Q724.1094 783.04065 723.625 782.4625Q723.1406 781.8688 722.4531 781.8688Q721.78125 781.8688 721.2656 782.4938Q720.75 783.1188 720.75 784.3219ZM732.09375 786.4625L732.25 787.3844Q731.7969 787.47815 731.4531 787.47815Q730.875 787.47815 730.5625 787.3063Q730.25 787.1188 730.1094 786.8219Q729.9844 786.525 729.9844 785.5719L729.9844 781.9938L729.21875 781.9938L729.21875 781.1813L729.9844 781.1813L729.9844 779.6344L731.03125 779.0094L731.03125 781.1813L732.09375 781.1813L732.09375 781.9938L731.03125 781.9938L731.03125 785.6344Q731.03125 786.0875 731.0781 786.2125Q731.1406 786.3375 731.2656 786.41565Q731.3906 786.4938 731.625 786.4938Q731.8125 786.4938 732.09375 786.4625ZM732.7969 780.025L732.7969 778.8063L733.8594 778.8063L733.8594 780.025L732.7969 780.025ZM732.7969 787.4L732.7969 781.1813L733.8594 781.1813L733.8594 787.4L732.7969 787.4ZM735.7969 787.4L735.7969 781.1813L736.7344 781.1813L736.7344 782.0563Q737.03125 781.5875 737.5156 781.3219Q738.0 781.04065 738.625 781.04065Q739.3125 781.04065 739.75 781.3219Q740.2031 781.60315 740.375 782.1188Q741.125 781.04065 742.2969 781.04065Q743.2344 781.04065 743.71875 781.5563Q744.21875 782.0563 744.21875 783.1344L744.21875 787.4L743.1719 787.4L743.1719 783.47815Q743.1719 782.85315 743.0625 782.5719Q742.96875 782.29065 742.7031 782.1188Q742.4375 781.9469 742.0625 781.9469Q741.40625 781.9469 740.96875 782.3844Q740.5469 782.8219 740.5469 783.79065L740.5469 787.4L739.4844 787.4L739.4844 783.35315Q739.4844 782.65 739.21875 782.3063Q738.96875 781.9469 738.3906 781.9469Q737.9375 781.9469 737.5625 782.1813Q737.1875 782.41565 737.0156 782.8688Q736.84375 783.3219 736.84375 784.16565L736.84375 787.4L735.7969 787.4ZM751.0469 785.4L752.1406 785.525Q751.8906 786.47815 751.1875 787.0094Q750.4844 787.54065 749.40625 787.54065Q748.0469 787.54065 747.2344 786.6969Q746.4375 785.85315 746.4375 784.3375Q746.4375 782.775 747.25 781.91565Q748.0625 781.04065 749.34375 781.04065Q750.59375 781.04065 751.375 781.8844Q752.1719 782.72815 752.1719 784.275Q752.1719 784.3688 752.1719 784.5563L747.53125 784.5563Q747.59375 785.5875 748.1094 786.1344Q748.625 786.66565 749.40625 786.66565Q749.9844 786.66565 750.3906 786.3688Q750.8125 786.0563 751.0469 785.4ZM747.59375 783.6969L751.0625 783.6969Q751.0 782.9 750.6719 782.5094Q750.15625 781.9 749.3594 781.9Q748.625 781.9 748.125 782.3844Q747.6406 782.8688 747.59375 783.6969ZM754.0625 787.4L754.0625 786.1969L755.2656 786.1969L755.2656 787.4Q755.2656 788.0563 755.03125 788.4625Q754.7969 788.8844 754.2969 789.10315L754.0 788.65Q754.3281 788.5094 754.4844 788.2125Q754.6406 787.9313 754.6719 787.4L754.0625 787.4ZM759.375 785.54065L760.40625 785.3844Q760.5 786.0094 760.8906 786.3375Q761.2969 786.66565 762.03125 786.66565Q762.75 786.66565 763.09375 786.3844Q763.4531 786.0875 763.4531 785.6813Q763.4531 785.3219 763.1406 785.1188Q762.9219 784.97815 762.0625 784.7594Q760.90625 784.4625 760.4531 784.2594Q760.0156 784.04065 759.78125 783.66565Q759.5469 783.29065 759.5469 782.8219Q759.5469 782.41565 759.7344 782.0563Q759.9219 781.6969 760.25 781.4625Q760.5 781.29065 760.9219 781.16565Q761.34375 781.04065 761.84375 781.04065Q762.5625 781.04065 763.1094 781.2594Q763.6719 781.4625 763.9375 781.8219Q764.2031 782.1813 764.2969 782.775L763.2656 782.91565Q763.2031 782.4469 762.8594 782.1813Q762.53125 781.9 761.90625 781.9Q761.1875 781.9 760.875 782.15Q760.5625 782.3844 760.5625 782.7125Q760.5625 782.91565 760.6875 783.0719Q760.8281 783.2438 761.09375 783.35315Q761.25 783.41565 762.03125 783.6188Q763.15625 783.9313 763.59375 784.1188Q764.03125 784.3063 764.28125 784.66565Q764.53125 785.025 764.53125 785.5719Q764.53125 786.10315 764.21875 786.5719Q763.9219 787.025 763.34375 787.29065Q762.7656 787.54065 762.03125 787.54065Q760.8125 787.54065 760.1719 787.04065Q759.5469 786.525 759.375 785.54065Z" fill-rule="nonzero"/><path fill="#4285f4" d="M298.5 133.83333C298.5 133.28105 298.94772 132.83333 299.5 132.83333L309.5 132.83333C310.05228 132.83333 310.5 133.28105 310.5 133.83333L310.5 143.83333C310.5 144.38562 310.05228 144.83333 309.5 144.83333L299.5 144.83333C298.94772 144.83333 298.5 144.38562 298.5 143.83333Z" fill-rule="nonzero"/><path fill="#ffffff" d="M320.8125 149.33333L320.8125 127.86458L328.21875 127.86458Q330.71875 127.86458 332.03125 128.16145Q333.875 128.58333 335.1875 129.70833Q336.89062 131.14583 337.71875 133.3802Q338.5625 135.61458 338.5625 138.47395Q338.5625 140.92708 337.98438 142.8177Q337.42188 144.70833 336.53125 145.9427Q335.64062 147.17708 334.57812 147.89583Q333.51562 148.59895 332.01562 148.97395Q330.51562 149.33333 328.5625 149.33333L320.8125 149.33333ZM323.65625 146.80208L328.23438 146.80208Q330.35938 146.80208 331.5625 146.41145Q332.78125 146.0052 333.5 145.28645Q334.51562 144.28645 335.07812 142.58333Q335.64062 140.86458 335.64062 138.42708Q335.64062 135.0677 334.53125 133.2552Q333.42188 131.4427 331.84375 130.83333Q330.70312 130.39583 328.17188 130.39583L323.65625 130.39583L323.65625 146.80208ZM353.125 144.3177L355.85938 144.66145Q355.20312 147.05208 353.45312 148.3802Q351.71875 149.6927 349.01562 149.6927Q345.59375 149.6927 343.59375 147.58333Q341.59375 145.47395 341.59375 141.6927Q341.59375 137.7552 343.60938 135.59895Q345.64062 133.42708 348.85938 133.42708Q351.98438 133.42708 353.95312 135.55208Q355.9375 137.67708 355.9375 141.52083Q355.9375 141.7552 355.92188 142.22395L344.32812 142.22395Q344.46875 144.78645 345.76562 146.16145Q347.07812 147.52083 349.03125 147.52083Q350.46875 147.52083 351.5 146.7552Q352.53125 145.98958 353.125 144.3177ZM344.46875 140.0677L353.15625 140.0677Q352.98438 138.09895 352.15625 137.11458Q350.90625 135.59895 348.89062 135.59895Q347.07812 135.59895 345.84375 136.8177Q344.60938 138.02083 344.46875 140.0677ZM359.10938 149.33333L359.10938 135.83333L356.78125 135.83333L356.78125 133.77083L359.10938 133.77083L359.10938 132.11458Q359.10938 130.55208 359.39062 129.78645Q359.76562 128.77083 360.71875 128.1302Q361.6875 127.48958 363.42188 127.48958Q364.53125 127.48958 365.875 127.7552L365.48438 130.05208Q364.65625 129.91145 363.92188 129.91145Q362.71875 129.91145 362.21875 130.42708Q361.73438 130.92708 361.73438 132.33333L361.73438 133.77083L364.76562 133.77083L364.76562 135.83333L361.73438 135.83333L361.73438 149.33333L359.10938 149.33333ZM376.625 147.41145Q375.17188 148.66145 373.8125 149.17708Q372.45312 149.6927 370.90625 149.6927Q368.34375 149.6927 366.95312 148.4427Q365.57812 147.17708 365.57812 145.22395Q365.57812 144.08333 366.09375 143.14583Q366.625 142.1927 367.46875 141.6302Q368.3125 141.05208 369.35938 140.77083Q370.14062 140.55208 371.70312 140.36458Q374.90625 139.98958 376.40625 139.45833Q376.42188 138.91145 376.42188 138.77083Q376.42188 137.16145 375.67188 136.5052Q374.67188 135.61458 372.67188 135.61458Q370.8125 135.61458 369.92188 136.27083Q369.04688 136.91145 368.60938 138.5677L366.03125 138.20833Q366.39062 136.55208 367.1875 135.53645Q368.0 134.52083 369.51562 133.97395Q371.04688 133.42708 373.0625 133.42708Q375.04688 133.42708 376.28125 133.89583Q377.53125 134.36458 378.10938 135.08333Q378.70312 135.78645 378.9375 136.86458Q379.07812 137.53645 379.07812 139.30208L379.07812 142.8177Q379.07812 146.48958 379.23438 147.47395Q379.40625 148.4427 379.90625 149.33333L377.15625 149.33333Q376.75 148.5052 376.625 147.41145ZM376.40625 141.52083Q374.96875 142.11458 372.10938 142.52083Q370.48438 142.7552 369.79688 143.05208Q369.125 143.34895 368.75 143.91145Q368.39062 144.47395 368.39062 145.16145Q368.39062 146.20833 369.1875 146.91145Q370.0 147.61458 371.53125 147.61458Q373.0625 147.61458 374.23438 146.95833Q375.42188 146.28645 375.98438 145.1302Q376.40625 144.23958 376.40625 142.48958L376.40625 141.52083ZM392.67188 149.33333L392.67188 147.05208Q390.85938 149.6927 387.73438 149.6927Q386.35938 149.6927 385.15625 149.16145Q383.96875 148.6302 383.39062 147.83333Q382.8125 147.03645 382.57812 145.8802Q382.42188 145.09895 382.42188 143.41145L382.42188 133.77083L385.0625 133.77083L385.0625 142.41145Q385.0625 144.47395 385.21875 145.1927Q385.46875 146.22395 386.26562 146.8177Q387.07812 147.41145 388.26562 147.41145Q389.45312 147.41145 390.48438 146.80208Q391.53125 146.1927 391.95312 145.14583Q392.39062 144.09895 392.39062 142.11458L392.39062 133.77083L395.03125 133.77083L395.03125 149.33333L392.67188 149.33333ZM399.42188 149.33333L399.42188 127.86458L402.0625 127.86458L402.0625 149.33333L399.42188 149.33333ZM412.23438 146.97395L412.60938 149.30208Q411.5 149.53645 410.625 149.53645Q409.1875 149.53645 408.39062 149.08333Q407.60938 148.6302 407.28125 147.89583Q406.96875 147.14583 406.96875 144.77083L406.96875 135.83333L405.03125 135.83333L405.03125 133.77083L406.96875 133.77083L406.96875 129.92708L409.57812 128.34895L409.57812 133.77083L412.23438 133.77083L412.23438 135.83333L409.57812 135.83333L409.57812 144.92708Q409.57812 146.05208 409.71875 146.3802Q409.85938 146.6927 410.17188 146.89583Q410.48438 147.08333 411.07812 147.08333Q411.51562 147.08333 412.23438 146.97395ZM421.42188 144.6927L424.03125 144.28645Q424.25 145.84895 425.25 146.6927Q426.25 147.52083 428.0625 147.52083Q429.875 147.52083 430.75 146.78645Q431.64062 146.03645 431.64062 145.03645Q431.64062 144.14583 430.85938 143.6302Q430.3125 143.28645 428.15625 142.73958Q425.26562 142.0052 424.14062 141.47395Q423.01562 140.9427 422.4375 140.0052Q421.85938 139.05208 421.85938 137.91145Q421.85938 136.86458 422.32812 135.98958Q422.8125 135.09895 423.64062 134.5052Q424.25 134.05208 425.3125 133.73958Q426.375 133.42708 427.59375 133.42708Q429.42188 133.42708 430.79688 133.95833Q432.1875 134.47395 432.84375 135.3802Q433.51562 136.28645 433.75 137.78645L431.17188 138.14583Q431.0 136.9427 430.15625 136.27083Q429.3125 135.59895 427.78125 135.59895Q425.96875 135.59895 425.1875 136.1927Q424.40625 136.78645 424.40625 137.59895Q424.40625 138.11458 424.73438 138.52083Q425.0625 138.9427 425.75 139.22395Q426.14062 139.36458 428.07812 139.89583Q430.875 140.64583 431.96875 141.1302Q433.07812 141.59895 433.70312 142.5052Q434.34375 143.41145 434.34375 144.7552Q434.34375 146.08333 433.57812 147.2552Q432.8125 148.41145 431.35938 149.05208Q429.90625 149.6927 428.07812 149.6927Q425.04688 149.6927 423.45312 148.42708Q421.85938 147.16145 421.42188 144.6927ZM448.125 144.3177L450.85938 144.66145Q450.20312 147.05208 448.45312 148.3802Q446.71875 149.6927 444.01562 149.6927Q440.59375 149.6927 438.59375 147.58333Q436.59375 145.47395 436.59375 141.6927Q436.59375 137.7552 438.60938 135.59895Q440.64062 133.42708 443.85938 133.42708Q446.98438 133.42708 448.95312 135.55208Q450.9375 137.67708 450.9375 141.52083Q450.9375 141.7552 450.92188 142.22395L439.32812 142.22395Q439.46875 144.78645 440.76562 146.16145Q442.07812 147.52083 444.03125 147.52083Q445.46875 147.52083 446.5 146.7552Q447.53125 145.98958 448.125 144.3177ZM439.46875 140.0677L448.15625 140.0677Q447.98438 138.09895 447.15625 137.11458Q445.90625 135.59895 443.89062 135.59895Q442.07812 135.59895 440.84375 136.8177Q439.60938 138.02083 439.46875 140.0677ZM459.23438 146.97395L459.60938 149.30208Q458.5 149.53645 457.625 149.53645Q456.1875 149.53645 455.39062 149.08333Q454.60938 148.6302 454.28125 147.89583Q453.96875 147.14583 453.96875 144.77083L453.96875 135.83333L452.03125 135.83333L452.03125 133.77083L453.96875 133.77083L453.96875 129.92708L456.57812 128.34895L456.57812 133.77083L459.23438 133.77083L459.23438 135.83333L456.57812 135.83333L456.57812 144.92708Q456.57812 146.05208 456.71875 146.3802Q456.85938 146.6927 457.17188 146.89583Q457.48438 147.08333 458.07812 147.08333Q458.51562 147.08333 459.23438 146.97395ZM467.23438 146.97395L467.60938 149.30208Q466.5 149.53645 465.625 149.53645Q464.1875 149.53645 463.39062 149.08333Q462.60938 148.6302 462.28125 147.89583Q461.96875 147.14583 461.96875 144.77083L461.96875 135.83333L460.03125 135.83333L460.03125 133.77083L461.96875 133.77083L461.96875 129.92708L464.57812 128.34895L464.57812 133.77083L467.23438 133.77083L467.23438 135.83333L464.57812 135.83333L464.57812 144.92708Q464.57812 146.05208 464.71875 146.3802Q464.85938 146.6927 465.17188 146.89583Q465.48438 147.08333 466.07812 147.08333Q466.51562 147.08333 467.23438 146.97395ZM469.5 130.89583L469.5 127.86458L472.125 127.86458L472.125 130.89583L469.5 130.89583ZM469.5 149.33333L469.5 133.77083L472.125 133.77083L472.125 149.33333L469.5 149.33333ZM476.48438 149.33333L476.48438 133.77083L478.84375 133.77083L478.84375 135.98958Q480.5625 133.42708 483.79688 133.42708Q485.20312 133.42708 486.375 133.9427Q487.5625 134.4427 488.14062 135.27083Q488.73438 136.08333 488.96875 137.20833Q489.125 137.9427 489.125 139.77083L489.125 149.33333L486.48438 149.33333L486.48438 139.86458Q486.48438 138.2552 486.17188 137.45833Q485.875 136.66145 485.07812 136.1927Q484.29688 135.70833 483.25 135.70833Q481.5625 135.70833 480.32812 136.78645Q479.10938 137.84895 479.10938 140.83333L479.10938 149.33333L476.48438 149.33333ZM493.0 150.6302L495.5625 151.0052Q495.71875 152.1927 496.45312 152.73958Q497.4375 153.45833 499.125 153.45833Q500.96875 153.45833 501.95312 152.72395Q502.95312 152.0052 503.3125 150.67708Q503.51562 149.8802 503.5 147.30208Q501.76562 149.33333 499.1875 149.33333Q495.98438 149.33333 494.21875 147.02083Q492.46875 144.70833 492.46875 141.47395Q492.46875 139.23958 493.26562 137.36458Q494.07812 135.47395 495.60938 134.45833Q497.14062 133.42708 499.20312 133.42708Q501.95312 133.42708 503.75 135.64583L503.75 133.77083L506.17188 133.77083L506.17188 147.22395Q506.17188 150.86458 505.4375 152.3802Q504.70312 153.89583 503.09375 154.77083Q501.48438 155.64583 499.14062 155.64583Q496.35938 155.64583 494.64062 154.39583Q492.9375 153.14583 493.0 150.6302ZM495.17188 141.27083Q495.17188 144.33333 496.39062 145.73958Q497.60938 147.14583 499.4375 147.14583Q501.25 147.14583 502.48438 145.7552Q503.71875 144.34895 503.71875 141.36458Q503.71875 138.5052 502.45312 137.0677Q501.1875 135.61458 499.39062 135.61458Q497.64062 135.61458 496.40625 137.03645Q495.17188 138.45833 495.17188 141.27083ZM509.42188 144.6927L512.03125 144.28645Q512.25 145.84895 513.25 146.6927Q514.25 147.52083 516.0625 147.52083Q517.875 147.52083 518.75 146.78645Q519.6406 146.03645 519.6406 145.03645Q519.6406 144.14583 518.8594 143.6302Q518.3125 143.28645 516.15625 142.73958Q513.2656 142.0052 512.1406 141.47395Q511.01562 140.9427 510.4375 140.0052Q509.85938 139.05208 509.85938 137.91145Q509.85938 136.86458 510.32812 135.98958Q510.8125 135.09895 511.64062 134.5052Q512.25 134.05208 513.3125 133.73958Q514.375 133.42708 515.59375 133.42708Q517.4219 133.42708 518.7969 133.95833Q520.1875 134.47395 520.84375 135.3802Q521.5156 136.28645 521.75 137.78645L519.1719 138.14583Q519.0 136.9427 518.15625 136.27083Q517.3125 135.59895 515.78125 135.59895Q513.96875 135.59895 513.1875 136.1927Q512.40625 136.78645 512.40625 137.59895Q512.40625 138.11458 512.7344 138.52083Q513.0625 138.9427 513.75 139.22395Q514.1406 139.36458 516.0781 139.89583Q518.875 140.64583 519.96875 141.1302Q521.0781 141.59895 521.7031 142.5052Q522.34375 143.41145 522.34375 144.7552Q522.34375 146.08333 521.5781 147.2552Q520.8125 148.41145 519.3594 149.05208Q517.90625 149.6927 516.0781 149.6927Q513.0469 149.6927 511.45312 148.42708Q509.85938 147.16145 509.42188 144.6927Z" fill-rule="nonzero"/><path fill="#ea4335" d="M539.5 133.83333C539.5 133.28105 539.9477 132.83333 540.5 132.83333L550.5 132.83333C551.0523 132.83333 551.5 133.28105 551.5 133.83333L551.5 143.83333C551.5 144.38562 551.0523 144.83333 550.5 144.83333L540.5 144.83333C539.9477 144.83333 539.5 144.38562 539.5 143.83333Z" fill-rule="nonzero"/><path fill="#ffffff" d="M559.4531 149.33333L567.7031 127.86458L570.7656 127.86458L579.5469 149.33333L576.3125 149.33333L573.8125 142.83333L564.8281 142.83333L562.46875 149.33333L559.4531 149.33333ZM565.65625 140.52083L572.9375 140.52083L570.6875 134.5677Q569.6719 131.86458 569.1719 130.11458Q568.7656 132.17708 568.0156 134.20833L565.65625 140.52083ZM579.9531 138.8802Q579.9531 133.52083 582.8125 130.5052Q585.6875 127.47395 590.2344 127.47395Q593.2031 127.47395 595.59375 128.89583Q597.9844 130.3177 599.2344 132.86458Q600.4844 135.39583 600.4844 138.6302Q600.4844 141.89583 599.15625 144.47395Q597.84375 147.05208 595.4219 148.3802Q593.0156 149.6927 590.21875 149.6927Q587.1875 149.6927 584.7969 148.23958Q582.40625 146.77083 581.1719 144.23958Q579.9531 141.70833 579.9531 138.8802ZM582.875 138.91145Q582.875 142.80208 584.96875 145.03645Q587.0625 147.27083 590.2031 147.27083Q593.40625 147.27083 595.4844 145.02083Q597.5625 142.7552 597.5625 138.61458Q597.5625 135.98958 596.6719 134.03645Q595.78125 132.08333 594.0781 131.0052Q592.375 129.92708 590.25 129.92708Q587.2344 129.92708 585.0469 132.0052Q582.875 134.0677 582.875 138.91145ZM609.28125 149.33333L609.28125 130.39583L602.2031 130.39583L602.2031 127.86458L619.21875 127.86458L619.21875 130.39583L612.125 130.39583L612.125 149.33333L609.28125 149.33333ZM646.1406 141.80208L648.9844 142.52083Q648.0781 146.02083 645.75 147.86458Q643.4375 149.6927 640.09375 149.6927Q636.6094 149.6927 634.4375 148.28645Q632.2656 146.86458 631.125 144.1927Q630.0 141.5052 630.0 138.42708Q630.0 135.08333 631.28125 132.58333Q632.5625 130.08333 634.9219 128.78645Q637.2969 127.48958 640.125 127.48958Q643.3594 127.48958 645.5469 129.1302Q647.75 130.77083 648.6094 133.73958L645.8125 134.41145Q645.0625 132.0677 643.6406 131.0052Q642.21875 129.92708 640.0781 129.92708Q637.59375 129.92708 635.9219 131.11458Q634.2656 132.30208 633.59375 134.30208Q632.9219 136.30208 632.9219 138.42708Q632.9219 141.16145 633.71875 143.20833Q634.5156 145.23958 636.2031 146.2552Q637.8906 147.27083 639.8594 147.27083Q642.2344 147.27083 643.8906 145.89583Q645.5469 144.52083 646.1406 141.80208ZM662.625 147.41145Q661.1719 148.66145 659.8125 149.17708Q658.4531 149.6927 656.90625 149.6927Q654.34375 149.6927 652.9531 148.4427Q651.5781 147.17708 651.5781 145.22395Q651.5781 144.08333 652.09375 143.14583Q652.625 142.1927 653.46875 141.6302Q654.3125 141.05208 655.3594 140.77083Q656.1406 140.55208 657.7031 140.36458Q660.90625 139.98958 662.40625 139.45833Q662.4219 138.91145 662.4219 138.77083Q662.4219 137.16145 661.6719 136.5052Q660.6719 135.61458 658.6719 135.61458Q656.8125 135.61458 655.9219 136.27083Q655.0469 136.91145 654.6094 138.5677L652.03125 138.20833Q652.3906 136.55208 653.1875 135.53645Q654.0 134.52083 655.5156 133.97395Q657.0469 133.42708 659.0625 133.42708Q661.0469 133.42708 662.28125 133.89583Q663.53125 134.36458 664.1094 135.08333Q664.7031 135.78645 664.9375 136.86458Q665.0781 137.53645 665.0781 139.30208L665.0781 142.8177Q665.0781 146.48958 665.2344 147.47395Q665.40625 148.4427 665.90625 149.33333L663.15625 149.33333Q662.75 148.5052 662.625 147.41145ZM662.40625 141.52083Q660.96875 142.11458 658.1094 142.52083Q656.4844 142.7552 655.7969 143.05208Q655.125 143.34895 654.75 143.91145Q654.3906 144.47395 654.3906 145.16145Q654.3906 146.20833 655.1875 146.91145Q656.0 147.61458 657.53125 147.61458Q659.0625 147.61458 660.2344 146.95833Q661.4219 146.28645 661.9844 145.1302Q662.40625 144.23958 662.40625 142.48958L662.40625 141.52083ZM678.625 143.6302L681.21875 143.97395Q680.7969 146.64583 679.0469 148.17708Q677.2969 149.6927 674.75 149.6927Q671.5469 149.6927 669.6094 147.59895Q667.6719 145.5052 667.6719 141.61458Q667.6719 139.09895 668.5 137.20833Q669.34375 135.3177 671.0469 134.3802Q672.75 133.42708 674.7656 133.42708Q677.2969 133.42708 678.90625 134.70833Q680.5156 135.98958 680.96875 138.34895L678.40625 138.73958Q678.0469 137.17708 677.1094 136.39583Q676.1875 135.59895 674.8594 135.59895Q672.875 135.59895 671.625 137.02083Q670.375 138.4427 670.375 141.53645Q670.375 144.67708 671.5781 146.09895Q672.78125 147.52083 674.71875 147.52083Q676.2656 147.52083 677.2969 146.5677Q678.34375 145.61458 678.625 143.6302ZM683.4844 149.33333L683.4844 127.86458L686.1094 127.86458L686.1094 135.5677Q687.9531 133.42708 690.7656 133.42708Q692.5 133.42708 693.7656 134.11458Q695.0469 134.78645 695.59375 135.98958Q696.15625 137.1927 696.15625 139.47395L696.15625 149.33333L693.5156 149.33333L693.5156 139.47395Q693.5156 137.48958 692.65625 136.59895Q691.7969 135.6927 690.2344 135.6927Q689.0625 135.6927 688.03125 136.30208Q687.0 136.91145 686.5469 137.95833Q686.1094 138.98958 686.1094 140.8177L686.1094 149.33333L683.4844 149.33333ZM711.125 144.3177L713.8594 144.66145Q713.2031 147.05208 711.4531 148.3802Q709.71875 149.6927 707.0156 149.6927Q703.59375 149.6927 701.59375 147.58333Q699.59375 145.47395 699.59375 141.6927Q699.59375 137.7552 701.6094 135.59895Q703.6406 133.42708 706.8594 133.42708Q709.9844 133.42708 711.9531 135.55208Q713.9375 137.67708 713.9375 141.52083Q713.9375 141.7552 713.9219 142.22395L702.3281 142.22395Q702.46875 144.78645 703.7656 146.16145Q705.0781 147.52083 707.03125 147.52083Q708.46875 147.52083 709.5 146.7552Q710.53125 145.98958 711.125 144.3177ZM702.46875 140.0677L711.15625 140.0677Q710.9844 138.09895 710.15625 137.11458Q708.90625 135.59895 706.8906 135.59895Q705.0781 135.59895 703.84375 136.8177Q702.6094 138.02083 702.46875 140.0677Z" fill-rule="nonzero"/><path fill="#fbbc04" d="M730.5 133.83333C730.5 133.28105 730.9477 132.83333 731.5 132.83333L741.5 132.83333C742.0523 132.83333 742.5 133.28105 742.5 133.83333L742.5 143.83333C742.5 144.38562 742.0523 144.83333 741.5 144.83333L731.5 144.83333C730.9477 144.83333 730.5 144.38562 730.5 143.83333Z" fill-rule="nonzero"/><path fill="#ffffff" d="M762.8594 140.91145L762.8594 138.39583L771.9531 138.3802L771.9531 146.34895Q769.8594 148.02083 767.625 148.86458Q765.40625 149.6927 763.0625 149.6927Q759.90625 149.6927 757.3125 148.34895Q754.7344 146.98958 753.40625 144.42708Q752.09375 141.86458 752.09375 138.6927Q752.09375 135.5677 753.40625 132.84895Q754.71875 130.1302 757.1719 128.8177Q759.6406 127.48958 762.84375 127.48958Q765.1719 127.48958 767.0469 128.2552Q768.9375 129.0052 770.0 130.34895Q771.0781 131.6927 771.6406 133.86458L769.0781 134.5677Q768.59375 132.92708 767.875 131.98958Q767.15625 131.05208 765.8125 130.48958Q764.4844 129.92708 762.8594 129.92708Q760.9219 129.92708 759.5 130.52083Q758.0781 131.11458 757.2031 132.08333Q756.3281 133.03645 755.84375 134.20833Q755.03125 136.1927 755.03125 138.52083Q755.03125 141.39583 756.0156 143.33333Q757.0 145.2552 758.8906 146.1927Q760.78125 147.1302 762.90625 147.1302Q764.75 147.1302 766.5 146.42708Q768.2656 145.70833 769.1719 144.91145L769.1719 140.91145L762.8594 140.91145ZM775.4531 149.33333L775.4531 133.77083L777.8281 133.77083L777.8281 136.1302Q778.7344 134.47395 779.5 133.95833Q780.2656 133.42708 781.1875 133.42708Q782.53125 133.42708 783.90625 134.27083L783.0 136.72395Q782.03125 136.14583 781.0625 136.14583Q780.1875 136.14583 779.5 136.67708Q778.8125 137.1927 778.53125 138.11458Q778.0781 139.52083 778.0781 141.1927L778.0781 149.33333L775.4531 149.33333ZM795.625 147.41145Q794.1719 148.66145 792.8125 149.17708Q791.4531 149.6927 789.90625 149.6927Q787.34375 149.6927 785.9531 148.4427Q784.5781 147.17708 784.5781 145.22395Q784.5781 144.08333 785.09375 143.14583Q785.625 142.1927 786.46875 141.6302Q787.3125 141.05208 788.3594 140.77083Q789.1406 140.55208 790.7031 140.36458Q793.90625 139.98958 795.40625 139.45833Q795.4219 138.91145 795.4219 138.77083Q795.4219 137.16145 794.6719 136.5052Q793.6719 135.61458 791.6719 135.61458Q789.8125 135.61458 788.9219 136.27083Q788.0469 136.91145 787.6094 138.5677L785.03125 138.20833Q785.3906 136.55208 786.1875 135.53645Q787.0 134.52083 788.5156 133.97395Q790.0469 133.42708 792.0625 133.42708Q794.0469 133.42708 795.28125 133.89583Q796.53125 134.36458 797.1094 135.08333Q797.7031 135.78645 797.9375 136.86458Q798.0781 137.53645 798.0781 139.30208L798.0781 142.8177Q798.0781 146.48958 798.2344 147.47395Q798.40625 148.4427 798.90625 149.33333L796.15625 149.33333Q795.75 148.5052 795.625 147.41145ZM795.40625 141.52083Q793.96875 142.11458 791.1094 142.52083Q789.4844 142.7552 788.7969 143.05208Q788.125 143.34895 787.75 143.91145Q787.3906 144.47395 787.3906 145.16145Q787.3906 146.20833 788.1875 146.91145Q789.0 147.61458 790.53125 147.61458Q792.0625 147.61458 793.2344 146.95833Q794.4219 146.28645 794.9844 145.1302Q795.40625 144.23958 795.40625 142.48958L795.40625 141.52083ZM811.625 147.41145Q810.1719 148.66145 808.8125 149.17708Q807.4531 149.6927 805.90625 149.6927Q803.34375 149.6927 801.9531 148.4427Q800.5781 147.17708 800.5781 145.22395Q800.5781 144.08333 801.09375 143.14583Q801.625 142.1927 802.46875 141.6302Q803.3125 141.05208 804.3594 140.77083Q805.1406 140.55208 806.7031 140.36458Q809.90625 139.98958 811.40625 139.45833Q811.4219 138.91145 811.4219 138.77083Q811.4219 137.16145 810.6719 136.5052Q809.6719 135.61458 807.6719 135.61458Q805.8125 135.61458 804.9219 136.27083Q804.0469 136.91145 803.6094 138.5677L801.03125 138.20833Q801.3906 136.55208 802.1875 135.53645Q803.0 134.52083 804.5156 133.97395Q806.0469 133.42708 808.0625 133.42708Q810.0469 133.42708 811.28125 133.89583Q812.53125 134.36458 813.1094 135.08333Q813.7031 135.78645 813.9375 136.86458Q814.0781 137.53645 814.0781 139.30208L814.0781 142.8177Q814.0781 146.48958 814.2344 147.47395Q814.40625 148.4427 814.90625 149.33333L812.15625 149.33333Q811.75 148.5052 811.625 147.41145ZM811.40625 141.52083Q809.96875 142.11458 807.1094 142.52083Q805.4844 142.7552 804.7969 143.05208Q804.125 143.34895 803.75 143.91145Q803.3906 144.47395 803.3906 145.16145Q803.3906 146.20833 804.1875 146.91145Q805.0 147.61458 806.53125 147.61458Q808.0625 147.61458 809.2344 146.95833Q810.4219 146.28645 810.9844 145.1302Q811.40625 144.23958 811.40625 142.48958L811.40625 141.52083ZM817.4219 149.33333L817.4219 127.86458L820.0625 127.86458L820.0625 149.33333L817.4219 149.33333ZM830.9531 149.33333L822.625 127.86458L825.7031 127.86458L831.2969 143.45833Q831.96875 145.33333 832.4219 146.97395Q832.9219 145.22395 833.5781 143.45833L839.375 127.86458L842.28125 127.86458L833.875 149.33333L830.9531 149.33333ZM843.7344 149.33333L843.7344 127.86458L848.0 127.86458L853.09375 143.0677Q853.7969 145.1927 854.1094 146.23958Q854.4844 145.0677 855.25 142.80208L860.3906 127.86458L864.21875 127.86458L864.21875 149.33333L861.4844 149.33333L861.4844 131.36458L855.2344 149.33333L852.6719 149.33333L846.46875 131.05208L846.46875 149.33333L843.7344 149.33333ZM876.78125 149.33333L876.78125 127.86458L879.7031 127.86458L890.9844 144.72395L890.9844 127.86458L893.7031 127.86458L893.7031 149.33333L890.7969 149.33333L879.5156 132.45833L879.5156 149.33333L876.78125 149.33333ZM908.625 147.41145Q907.1719 148.66145 905.8125 149.17708Q904.4531 149.6927 902.90625 149.6927Q900.34375 149.6927 898.9531 148.4427Q897.5781 147.17708 897.5781 145.22395Q897.5781 144.08333 898.09375 143.14583Q898.625 142.1927 899.46875 141.6302Q900.3125 141.05208 901.3594 140.77083Q902.1406 140.55208 903.7031 140.36458Q906.90625 139.98958 908.40625 139.45833Q908.4219 138.91145 908.4219 138.77083Q908.4219 137.16145 907.6719 136.5052Q906.6719 135.61458 904.6719 135.61458Q902.8125 135.61458 901.9219 136.27083Q901.0469 136.91145 900.6094 138.5677L898.03125 138.20833Q898.3906 136.55208 899.1875 135.53645Q900.0 134.52083 901.5156 133.97395Q903.0469 133.42708 905.0625 133.42708Q907.0469 133.42708 908.28125 133.89583Q909.53125 134.36458 910.1094 135.08333Q910.7031 135.78645 910.9375 136.86458Q911.0781 137.53645 911.0781 139.30208L911.0781 142.8177Q911.0781 146.48958 911.2344 147.47395Q911.40625 148.4427 911.90625 149.33333L909.15625 149.33333Q908.75 148.5052 908.625 147.41145ZM908.40625 141.52083Q906.96875 142.11458 904.1094 142.52083Q902.4844 142.7552 901.7969 143.05208Q901.125 143.34895 900.75 143.91145Q900.3906 144.47395 900.3906 145.16145Q900.3906 146.20833 901.1875 146.91145Q902.0 147.61458 903.53125 147.61458Q905.0625 147.61458 906.2344 146.95833Q907.4219 146.28645 907.9844 145.1302Q908.40625 144.23958 908.40625 142.48958L908.40625 141.52083ZM920.2344 146.97395L920.6094 149.30208Q919.5 149.53645 918.625 149.53645Q917.1875 149.53645 916.3906 149.08333Q915.6094 148.6302 915.28125 147.89583Q914.96875 147.14583 914.96875 144.77083L914.96875 135.83333L913.03125 135.83333L913.03125 133.77083L914.96875 133.77083L914.96875 129.92708L917.5781 128.34895L917.5781 133.77083L920.2344 133.77083L920.2344 135.83333L917.5781 135.83333L917.5781 144.92708Q917.5781 146.05208 917.71875 146.3802Q917.8594 146.6927 918.1719 146.89583Q918.4844 147.08333 919.0781 147.08333Q919.5156 147.08333 920.2344 146.97395ZM922.5 130.89583L922.5 127.86458L925.125 127.86458L925.125 130.89583L922.5 130.89583ZM922.5 149.33333L922.5 133.77083L925.125 133.77083L925.125 149.33333L922.5 149.33333ZM933.7969 149.33333L927.875 133.77083L930.6719 133.77083L934.0 143.09895Q934.5469 144.59895 935.0 146.22395Q935.3594 144.98958 935.9844 143.27083L939.4375 133.77083L942.15625 133.77083L936.2656 149.33333L933.7969 149.33333ZM955.125 144.3177L957.8594 144.66145Q957.2031 147.05208 955.4531 148.3802Q953.71875 149.6927 951.0156 149.6927Q947.59375 149.6927 945.59375 147.58333Q943.59375 145.47395 943.59375 141.6927Q943.59375 137.7552 945.6094 135.59895Q947.6406 133.42708 950.8594 133.42708Q953.9844 133.42708 955.9531 135.55208Q957.9375 137.67708 957.9375 141.52083Q957.9375 141.7552 957.9219 142.22395L946.3281 142.22395Q946.46875 144.78645 947.7656 146.16145Q949.0781 147.52083 951.03125 147.52083Q952.46875 147.52083 953.5 146.7552Q954.53125 145.98958 955.125 144.3177ZM946.46875 140.0677L955.15625 140.0677Q954.9844 138.09895 954.15625 137.11458Q952.90625 135.59895 950.8906 135.59895Q949.0781 135.59895 947.84375 136.8177Q946.6094 138.02083 946.46875 140.0677ZM969.2969 149.33333L969.2969 127.86458L972.1406 127.86458L972.1406 149.33333L969.2969 149.33333ZM975.4844 149.33333L975.4844 133.77083L977.84375 133.77083L977.84375 135.95833Q978.5625 134.8177 979.78125 134.1302Q981.0 133.42708 982.5469 133.42708Q984.28125 133.42708 985.3906 134.14583Q986.5 134.86458 986.9531 136.14583Q988.7969 133.42708 991.75 133.42708Q994.0625 133.42708 995.3125 134.70833Q996.5625 135.98958 996.5625 138.66145L996.5625 149.33333L993.9375 149.33333L993.9375 139.53645Q993.9375 137.95833 993.6719 137.2552Q993.4219 136.55208 992.75 136.1302Q992.0781 135.70833 991.1719 135.70833Q989.53125 135.70833 988.4375 136.80208Q987.3594 137.89583 987.3594 140.30208L987.3594 149.33333L984.71875 149.33333L984.71875 139.22395Q984.71875 137.47395 984.0781 136.59895Q983.4375 135.70833 981.96875 135.70833Q980.8594 135.70833 979.90625 136.30208Q978.96875 136.8802 978.53125 138.0052Q978.1094 139.1302 978.1094 141.2552L978.1094 149.33333L975.4844 149.33333ZM1010.625 147.41145Q1009.1719 148.66145 1007.8125 149.17708Q1006.4531 149.6927 1004.90625 149.6927Q1002.34375 149.6927 1000.9531 148.4427Q999.5781 147.17708 999.5781 145.22395Q999.5781 144.08333 1000.09375 143.14583Q1000.625 142.1927 1001.46875 141.6302Q1002.3125 141.05208 1003.3594 140.77083Q1004.1406 140.55208 1005.7031 140.36458Q1008.90625 139.98958 1010.40625 139.45833Q1010.4219 138.91145 1010.4219 138.77083Q1010.4219 137.16145 1009.6719 136.5052Q1008.6719 135.61458 1006.6719 135.61458Q1004.8125 135.61458 1003.9219 136.27083Q1003.0469 136.91145 1002.6094 138.5677L1000.03125 138.20833Q1000.3906 136.55208 1001.1875 135.53645Q1002.0 134.52083 1003.5156 133.97395Q1005.0469 133.42708 1007.0625 133.42708Q1009.0469 133.42708 1010.28125 133.89583Q1011.53125 134.36458 1012.1094 135.08333Q1012.7031 135.78645 1012.9375 136.86458Q1013.0781 137.53645 1013.0781 139.30208L1013.0781 142.8177Q1013.0781 146.48958 1013.2344 147.47395Q1013.40625 148.4427 1013.90625 149.33333L1011.15625 149.33333Q1010.75 148.5052 1010.625 147.41145ZM1010.40625 141.52083Q1008.96875 142.11458 1006.1094 142.52083Q1004.4844 142.7552 1003.7969 143.05208Q1003.125 143.34895 1002.75 143.91145Q1002.3906 144.47395 1002.3906 145.16145Q1002.3906 146.20833 1003.1875 146.91145Q1004.0 147.61458 1005.53125 147.61458Q1007.0625 147.61458 1008.2344 146.95833Q1009.4219 146.28645 1009.9844 145.1302Q1010.40625 144.23958 1010.40625 142.48958L1010.40625 141.52083ZM1016.0 150.6302L1018.5625 151.0052Q1018.71875 152.1927 1019.4531 152.73958Q1020.4375 153.45833 1022.125 153.45833Q1023.96875 153.45833 1024.9531 152.72395Q1025.9531 152.0052 1026.3125 150.67708Q1026.5156 149.8802 1026.5 147.30208Q1024.7656 149.33333 1022.1875 149.33333Q1018.9844 149.33333 1017.21875 147.02083Q1015.46875 144.70833 1015.46875 141.47395Q1015.46875 139.23958 1016.2656 137.36458Q1017.0781 135.47395 1018.6094 134.45833Q1020.1406 133.42708 1022.2031 133.42708Q1024.9531 133.42708 1026.75 135.64583L1026.75 133.77083L1029.1719 133.77083L1029.1719 147.22395Q1029.1719 150.86458 1028.4375 152.3802Q1027.7031 153.89583 1026.0938 154.77083Q1024.4844 155.64583 1022.1406 155.64583Q1019.3594 155.64583 1017.6406 154.39583Q1015.9375 153.14583 1016.0 150.6302ZM1018.1719 141.27083Q1018.1719 144.33333 1019.3906 145.73958Q1020.6094 147.14583 1022.4375 147.14583Q1024.25 147.14583 1025.4844 145.7552Q1026.7188 144.34895 1026.7188 141.36458Q1026.7188 138.5052 1025.4531 137.0677Q1024.1875 135.61458 1022.3906 135.61458Q1020.6406 135.61458 1019.40625 137.03645Q1018.1719 138.45833 1018.1719 141.27083ZM1044.125 144.3177L1046.8594 144.66145Q1046.2031 147.05208 1044.4531 148.3802Q1042.7188 149.6927 1040.0156 149.6927Q1036.5938 149.6927 1034.5938 147.58333Q1032.5938 145.47395 1032.5938 141.6927Q1032.5938 137.7552 1034.6094 135.59895Q1036.6406 133.42708 1039.8594 133.42708Q1042.9844 133.42708 1044.9531 135.55208Q1046.9375 137.67708 1046.9375 141.52083Q1046.9375 141.7552 1046.9219 142.22395L1035.3281 142.22395Q1035.4688 144.78645 1036.7656 146.16145Q1038.0781 147.52083 1040.0312 147.52083Q1041.4688 147.52083 1042.5 146.7552Q1043.5312 145.98958 1044.125 144.3177ZM1035.4688 140.0677L1044.1562 140.0677Q1043.9844 138.09895 1043.1562 137.11458Q1041.9062 135.59895 1039.8906 135.59895Q1038.0781 135.59895 1036.8438 136.8177Q1035.6094 138.02083 1035.4688 140.0677Z" fill-rule="nonzero"/><path fill="#ffffff" d="M43.6625 73.02187L47.771873 72.6625Q48.06875 75.13125 49.13125 76.725Q50.209373 78.30312 52.44375 79.2875Q54.69375 80.25625 57.50625 80.25625Q59.990623 80.25625 61.896873 79.52187Q63.81875 78.77187 64.74062 77.49062Q65.67812 76.19375 65.67812 74.6625Q65.67812 73.11562 64.77187 71.95937Q63.88125 70.80312 61.81875 70.00625Q60.490623 69.49062 55.94375 68.4125Q51.4125 67.31875 49.6 66.35Q47.240623 65.11562 46.084373 63.2875Q44.928123 61.459373 44.928123 59.178123Q44.928123 56.69375 46.334373 54.521873Q47.75625 52.35 50.475 51.240623Q53.19375 50.115623 56.521873 50.115623Q60.178123 50.115623 62.975 51.303123Q65.77187 52.475 67.27187 54.771873Q68.77187 57.053123 68.89687 59.94375L64.70937 60.25625Q64.38125 57.146873 62.428123 55.553123Q60.490623 53.94375 56.69375 53.94375Q52.740623 53.94375 50.928123 55.396873Q49.13125 56.85 49.13125 58.896873Q49.13125 60.6625 50.4125 61.81875Q51.6625 62.959373 56.975 64.1625Q62.2875 65.36562 64.25625 66.25625Q67.13125 67.58437 68.50625 69.61562Q69.88125 71.64687 69.88125 74.30312Q69.88125 76.92812 68.36562 79.25625Q66.86562 81.58437 64.0375 82.88125Q61.225 84.1625 57.709373 84.1625Q53.240623 84.1625 50.209373 82.86562Q47.19375 81.55312 45.475 78.94375Q43.75625 76.31875 43.6625 73.02187ZM84.45937 79.99062L85.0375 83.55312Q83.33437 83.9125 81.99062 83.9125Q79.7875 83.9125 78.56875 83.225Q77.36562 82.52187 76.86562 81.39687Q76.38125 80.25625 76.38125 76.61562L76.38125 62.896873L73.4125 62.896873L73.4125 59.740623L76.38125 59.740623L76.38125 53.834373L80.39687 51.4125L80.39687 59.740623L84.45937 59.740623L84.45937 62.896873L80.39687 62.896873L80.39687 76.83437Q80.39687 78.56875 80.6 79.06875Q80.81875 79.55312 81.30312 79.85Q81.7875 80.14687 82.67812 80.14687Q83.36562 80.14687 84.45937 79.99062ZM104.19375 80.6625Q101.95937 82.56875 99.88125 83.36562Q97.80312 84.14687 95.4125 84.14687Q91.49062 84.14687 89.36562 82.225Q87.25625 80.30312 87.25625 77.30312Q87.25625 75.55312 88.05312 74.11562Q88.85 72.6625 90.14687 71.7875Q91.44375 70.9125 93.05312 70.45937Q94.24062 70.14687 96.64687 69.85Q101.55312 69.27187 103.86562 68.45937Q103.88125 67.63125 103.88125 67.4125Q103.88125 64.92812 102.74062 63.928123Q101.19375 62.553123 98.13125 62.553123Q95.2875 62.553123 93.92812 63.553123Q92.56875 64.55312 91.9125 67.08437L87.95937 66.55312Q88.49062 64.00625 89.725 62.459373Q90.975 60.896873 93.30312 60.053123Q95.64687 59.209373 98.725 59.209373Q101.77187 59.209373 103.67812 59.928123Q105.58437 60.646873 106.475 61.740623Q107.38125 62.81875 107.74062 64.49062Q107.94375 65.52187 107.94375 68.20937L107.94375 73.6Q107.94375 79.24062 108.19375 80.74062Q108.45937 82.225 109.225 83.6L105.00625 83.6Q104.38125 82.33437 104.19375 80.6625ZM103.86562 71.63125Q101.6625 72.52187 97.25625 73.1625Q94.77187 73.52187 93.725 73.975Q92.69375 74.4125 92.13125 75.2875Q91.56875 76.14687 91.56875 77.19375Q91.56875 78.81875 92.7875 79.89687Q94.02187 80.975 96.38125 80.975Q98.725 80.975 100.5375 79.95937Q102.35 78.92812 103.20937 77.14687Q103.86562 75.7875 103.86562 73.11562L103.86562 71.63125ZM114.58437 83.6L114.58437 59.740623L118.225 59.740623L118.225 63.365623Q119.61562 60.81875 120.7875 60.021873Q121.975 59.209373 123.39687 59.209373Q125.44375 59.209373 127.55312 60.50625L126.1625 64.25625Q124.67812 63.38125 123.19375 63.38125Q121.86562 63.38125 120.80312 64.17812Q119.75625 64.975 119.30312 66.39687Q118.63125 68.55312 118.63125 71.11562L118.63125 83.6L114.58437 83.6ZM138.45938 79.99062L139.0375 83.55312Q137.33438 83.9125 135.99063 83.9125Q133.7875 83.9125 132.56876 83.225Q131.36563 82.52187 130.86563 81.39687Q130.38126 80.25625 130.38126 76.61562L130.38126 62.896873L127.4125 62.896873L127.4125 59.740623L130.38126 59.740623L130.38126 53.834373L134.39688 51.4125L134.39688 59.740623L138.45938 59.740623L138.45938 62.896873L134.39688 62.896873L134.39688 76.83437Q134.39688 78.56875 134.6 79.06875Q134.81876 79.55312 135.30313 79.85Q135.7875 80.14687 136.67813 80.14687Q137.36563 80.14687 138.45938 79.99062ZM158.27188 83.6L158.27188 80.1Q155.475 84.14687 150.69376 84.14687Q148.58438 84.14687 146.75626 83.33437Q144.92813 82.52187 144.0375 81.30312Q143.14688 80.06875 142.7875 78.30312Q142.5375 77.11562 142.5375 74.52187L142.5375 59.740623L146.58438 59.740623L146.58438 72.975Q146.58438 76.14687 146.83438 77.24062Q147.20938 78.83437 148.44376 79.75625Q149.67813 80.6625 151.50626 80.6625Q153.31876 80.6625 154.9125 79.725Q156.50626 78.7875 157.1625 77.19375Q157.83438 75.58437 157.83438 72.52187L157.83438 59.740623L161.88126 59.740623L161.88126 83.6L158.27188 83.6ZM168.63126 92.74062L168.63126 59.740623L172.31876 59.740623L172.31876 62.85Q173.61563 61.021873 175.25626 60.115623Q176.89688 59.209373 179.24063 59.209373Q182.2875 59.209373 184.61563 60.7875Q186.95938 62.35 188.14688 65.225Q189.33438 68.08437 189.33438 71.49062Q189.33438 75.14687 188.02188 78.08437Q186.70938 81.02187 184.20938 82.58437Q181.70938 84.14687 178.94376 84.14687Q176.92813 84.14687 175.31876 83.2875Q173.70938 82.42812 172.67813 81.13125L172.67813 92.74062L168.63126 92.74062ZM172.2875 71.80312Q172.2875 76.4125 174.14688 78.61562Q176.02188 80.81875 178.67813 80.81875Q181.36563 80.81875 183.2875 78.5375Q185.20938 76.25625 185.20938 71.475Q185.20938 66.9125 183.33438 64.64687Q181.45938 62.38125 178.85 62.38125Q176.27188 62.38125 174.27188 64.80312Q172.2875 67.20937 172.2875 71.80312ZM216.52188 83.6L216.52188 54.553123L205.67813 54.553123L205.67813 50.678123L231.77188 50.678123L231.77188 54.553123L220.88126 54.553123L220.88126 83.6L216.52188 83.6ZM235.6625 55.31875L235.6625 50.678123L239.69376 50.678123L239.69376 55.31875L235.6625 55.31875ZM235.6625 83.6L235.6625 59.740623L239.69376 59.740623L239.69376 83.6L235.6625 83.6ZM245.63126 83.6L245.63126 59.740623L249.25626 59.740623L249.25626 63.1Q250.36563 61.334373 252.225 60.271873Q254.1 59.209373 256.475 59.209373Q259.13126 59.209373 260.81876 60.31875Q262.52188 61.4125 263.225 63.38125Q266.05313 59.209373 270.58438 59.209373Q274.13126 59.209373 276.0375 61.178123Q277.95938 63.13125 277.95938 67.225L277.95938 83.6L273.92813 83.6L273.92813 68.56875Q273.92813 66.14687 273.5375 65.08437Q273.14688 64.00625 272.11563 63.365623Q271.08438 62.709373 269.69376 62.709373Q267.17813 62.709373 265.50626 64.38125Q263.85 66.05312 263.85 69.74062L263.85 83.6L259.80313 83.6L259.80313 68.1Q259.80313 65.4125 258.81876 64.06875Q257.83438 62.709373 255.58438 62.709373Q253.88126 62.709373 252.42813 63.615623Q250.975 64.50625 250.31876 66.24062Q249.67813 67.95937 249.67813 71.225L249.67813 83.6L245.63126 83.6ZM299.95938 75.9125L304.14688 76.42812Q303.14688 80.1 300.475 82.13125Q297.80313 84.14687 293.64688 84.14687Q288.4125 84.14687 285.35 80.92812Q282.2875 77.69375 282.2875 71.88125Q282.2875 65.85 285.38126 62.5375Q288.49063 59.209373 293.42813 59.209373Q298.20938 59.209373 301.24063 62.475Q304.27188 65.725 304.27188 71.63125Q304.27188 71.99062 304.25626 72.70937L286.45938 72.70937Q286.69376 76.63125 288.67813 78.725Q290.67813 80.81875 293.67813 80.81875Q295.89688 80.81875 297.45938 79.64687Q299.0375 78.475 299.95938 75.9125ZM286.69376 69.38125L300.00626 69.38125Q299.74063 66.36562 298.475 64.86562Q296.55313 62.5375 293.475 62.5375Q290.67813 62.5375 288.7875 64.39687Q286.89688 66.25625 286.69376 69.38125ZM323.20938 83.6L323.20938 50.678123L337.81876 50.678123Q342.225 50.678123 344.50626 51.56875Q346.80313 52.44375 348.1625 54.69375Q349.5375 56.94375 349.5375 59.6625Q349.5375 63.1625 347.27188 65.56875Q345.00626 67.95937 340.27188 68.61562Q341.99063 69.44375 342.89688 70.25625Q344.80313 72.00625 346.50626 74.63125L352.24063 83.6L346.75626 83.6L342.39688 76.75625Q340.49063 73.7875 339.25626 72.225Q338.02188 70.64687 337.0375 70.02187Q336.06876 69.38125 335.05313 69.13125Q334.31876 68.975 332.63126 68.975L327.56876 68.975L327.56876 83.6L323.20938 83.6ZM327.56876 65.20937L336.94376 65.20937Q339.92813 65.20937 341.61563 64.6Q343.30313 63.975 344.17813 62.615623Q345.05313 61.25625 345.05313 59.6625Q345.05313 57.31875 343.35 55.81875Q341.6625 54.303123 337.99063 54.303123L327.56876 54.303123L327.56876 65.20937ZM371.95938 75.9125L376.14688 76.42812Q375.14688 80.1 372.475 82.13125Q369.80313 84.14687 365.64688 84.14687Q360.4125 84.14687 357.35 80.92812Q354.2875 77.69375 354.2875 71.88125Q354.2875 65.85 357.38126 62.5375Q360.49063 59.209373 365.42813 59.209373Q370.20938 59.209373 373.24063 62.475Q376.27188 65.725 376.27188 71.63125Q376.27188 71.99062 376.25626 72.70937L358.45938 72.70937Q358.69376 76.63125 360.67813 78.725Q362.67813 80.81875 365.67813 80.81875Q367.89688 80.81875 369.45938 79.64687Q371.0375 78.475 371.95938 75.9125ZM358.69376 69.38125L372.00626 69.38125Q371.74063 66.36562 370.475 64.86562Q368.55313 62.5375 365.475 62.5375Q362.67813 62.5375 360.7875 64.39687Q358.89688 66.25625 358.69376 69.38125ZM397.11563 83.6L397.11563 80.58437Q394.83438 84.14687 390.44376 84.14687Q387.58438 84.14687 385.19376 82.56875Q382.80313 80.99062 381.49063 78.17812Q380.17813 75.35 380.17813 71.69375Q380.17813 68.13125 381.36563 65.225Q382.55313 62.303123 384.92813 60.75625Q387.31876 59.209373 390.25626 59.209373Q392.4125 59.209373 394.1 60.115623Q395.7875 61.021873 396.83438 62.490623L396.83438 50.678123L400.86563 50.678123L400.86563 83.6L397.11563 83.6ZM384.33438 71.69375Q384.33438 76.27187 386.25626 78.55312Q388.19376 80.81875 390.81876 80.81875Q393.475 80.81875 395.31876 78.64687Q397.17813 76.475 397.17813 72.0375Q397.17813 67.13125 395.2875 64.85Q393.39688 62.553123 390.64688 62.553123Q387.94376 62.553123 386.13126 64.75625Q384.33438 66.95937 384.33438 71.69375ZM423.27188 83.6L423.27188 80.1Q420.475 84.14687 415.69376 84.14687Q413.58438 84.14687 411.75626 83.33437Q409.92813 82.52187 409.0375 81.30312Q408.14688 80.06875 407.7875 78.30312Q407.5375 77.11562 407.5375 74.52187L407.5375 59.740623L411.58438 59.740623L411.58438 72.975Q411.58438 76.14687 411.83438 77.24062Q412.20938 78.83437 413.44376 79.75625Q414.67813 80.6625 416.50626 80.6625Q418.31876 80.6625 419.9125 79.725Q421.50626 78.7875 422.1625 77.19375Q422.83438 75.58437 422.83438 72.52187L422.83438 59.740623L426.88126 59.740623L426.88126 83.6L423.27188 83.6ZM449.19376 74.86562L453.17813 75.38125Q452.52188 79.49062 449.83438 81.81875Q447.14688 84.14687 443.24063 84.14687Q438.35 84.14687 435.36563 80.94375Q432.39688 77.74062 432.39688 71.75625Q432.39688 67.89687 433.67813 65.00625Q434.95938 62.1 437.56876 60.6625Q440.19376 59.209373 443.27188 59.209373Q447.14688 59.209373 449.61563 61.178123Q452.1 63.13125 452.7875 66.75625L448.86563 67.36562Q448.30313 64.95937 446.86563 63.75625Q445.44376 62.5375 443.42813 62.5375Q440.36563 62.5375 438.45938 64.725Q436.55313 66.9125 436.55313 71.64687Q436.55313 76.45937 438.39688 78.64687Q440.24063 80.81875 443.19376 80.81875Q445.58438 80.81875 447.17813 79.36562Q448.77188 77.89687 449.19376 74.86562ZM465.45938 79.99062L466.0375 83.55312Q464.33438 83.9125 462.99063 83.9125Q460.7875 83.9125 459.56876 83.225Q458.36563 82.52187 457.86563 81.39687Q457.38126 80.25625 457.38126 76.61562L457.38126 62.896873L454.4125 62.896873L454.4125 59.740623L457.38126 59.740623L457.38126 53.834373L461.39688 51.4125L461.39688 59.740623L465.45938 59.740623L465.45938 62.896873L461.39688 62.896873L461.39688 76.83437Q461.39688 78.56875 461.6 79.06875Q461.81876 79.55312 462.30313 79.85Q462.7875 80.14687 463.67813 80.14687Q464.36563 80.14687 465.45938 79.99062ZM469.6625 55.31875L469.6625 50.678123L473.69376 50.678123L473.69376 55.31875L469.6625 55.31875ZM469.6625 83.6L469.6625 59.740623L473.69376 59.740623L473.69376 83.6L469.6625 83.6ZM478.13126 71.67812Q478.13126 65.05312 481.81876 61.85Q484.88126 59.209373 489.31876 59.209373Q494.225 59.209373 497.35 62.428123Q500.475 65.64687 500.475 71.33437Q500.475 75.94375 499.08438 78.58437Q497.70938 81.225 495.06876 82.69375Q492.42813 84.14687 489.31876 84.14687Q484.30313 84.14687 481.20938 80.92812Q478.13126 77.70937 478.13126 71.67812ZM482.2875 71.67812Q482.2875 76.25625 484.2875 78.5375Q486.2875 80.81875 489.31876 80.81875Q492.31876 80.81875 494.31876 78.52187Q496.31876 76.225 496.31876 71.5375Q496.31876 67.11562 494.30313 64.83437Q492.30313 62.553123 489.31876 62.553123Q486.2875 62.553123 484.2875 64.81875Q482.2875 67.08437 482.2875 71.67812ZM505.63126 83.6L505.63126 59.740623L509.27188 59.740623L509.27188 63.13125Q511.89688 59.209373 516.8656 59.209373Q519.02185 59.209373 520.8187 59.990623Q522.6312 60.75625 523.52185 62.021873Q524.4281 63.271873 524.7875 65.00625Q525.02185 66.13125 525.02185 68.92812L525.02185 83.6L520.975 83.6L520.975 69.08437Q520.975 66.61562 520.5062 65.39687Q520.0375 64.17812 518.83435 63.44375Q517.6312 62.709373 516.0062 62.709373Q513.4281 62.709373 511.55313 64.35Q509.67813 65.99062 509.67813 70.56875L509.67813 83.6L505.63126 83.6ZM552.3656 93.2875Q549.0062 89.05312 546.6937 83.39687Q544.3812 77.74062 544.3812 71.67812Q544.3812 66.33437 546.1156 61.428123Q548.1312 55.740623 552.3656 50.115623L555.2562 50.115623Q552.5375 54.7875 551.6625 56.7875Q550.2875 59.88125 549.5062 63.25625Q548.5375 67.44375 548.5375 71.69375Q548.5375 82.50625 555.2562 93.2875L552.3656 93.2875ZM559.975 83.6L559.975 50.678123L564.33435 50.678123L564.33435 79.70937L580.5375 79.70937L580.5375 83.6L559.975 83.6ZM601.95935 75.9125L606.14685 76.42812Q605.14685 80.1 602.475 82.13125Q599.8031 84.14687 595.64685 84.14687Q590.4125 84.14687 587.35 80.92812Q584.2875 77.69375 584.2875 71.88125Q584.2875 65.85 587.3812 62.5375Q590.4906 59.209373 595.4281 59.209373Q600.20935 59.209373 603.2406 62.475Q606.27185 65.725 606.27185 71.63125Q606.27185 71.99062 606.2562 72.70937L588.45935 72.70937Q588.6937 76.63125 590.6781 78.725Q592.6781 80.81875 595.6781 80.81875Q597.89685 80.81875 599.45935 79.64687Q601.0375 78.475 601.95935 75.9125ZM588.6937 69.38125L602.0062 69.38125Q601.7406 66.36562 600.475 64.86562Q598.5531 62.5375 595.475 62.5375Q592.6781 62.5375 590.7875 64.39687Q588.89685 66.25625 588.6937 69.38125ZM610.02185 76.475L614.0062 75.85Q614.35 78.25625 615.8812 79.5375Q617.4281 80.81875 620.1937 80.81875Q622.975 80.81875 624.3187 79.69375Q625.6781 78.55312 625.6781 77.02187Q625.6781 75.64687 624.475 74.86562Q623.64685 74.31875 620.35 73.49062Q615.89685 72.36562 614.1781 71.55312Q612.45935 70.725 611.5687 69.2875Q610.6937 67.83437 610.6937 66.08437Q610.6937 64.49062 611.4125 63.13125Q612.14685 61.771873 613.4125 60.865623Q614.35 60.178123 615.975 59.69375Q617.6 59.209373 619.475 59.209373Q622.27185 59.209373 624.39685 60.021873Q626.52185 60.81875 627.5375 62.209373Q628.5531 63.584373 628.9281 65.89687L624.975 66.44375Q624.70935 64.6 623.4125 63.56875Q622.1156 62.5375 619.7562 62.5375Q616.975 62.5375 615.7875 63.459373Q614.6 64.36562 614.6 65.61562Q614.6 66.39687 615.08435 67.02187Q615.58435 67.67812 616.64685 68.1Q617.2406 68.31875 620.20935 69.13125Q624.5062 70.2875 626.1937 71.02187Q627.89685 71.74062 628.85 73.13125Q629.8187 74.52187 629.8187 76.58437Q629.8187 78.61562 628.64685 80.39687Q627.475 82.17812 625.2406 83.1625Q623.02185 84.14687 620.20935 84.14687Q615.5687 84.14687 613.1312 82.20937Q610.6937 80.27187 610.02185 76.475ZM633.02185 76.475L637.0062 75.85Q637.35 78.25625 638.8812 79.5375Q640.4281 80.81875 643.1937 80.81875Q645.975 80.81875 647.3187 79.69375Q648.6781 78.55312 648.6781 77.02187Q648.6781 75.64687 647.475 74.86562Q646.64685 74.31875 643.35 73.49062Q638.89685 72.36562 637.1781 71.55312Q635.45935 70.725 634.5687 69.2875Q633.6937 67.83437 633.6937 66.08437Q633.6937 64.49062 634.4125 63.13125Q635.14685 61.771873 636.4125 60.865623Q637.35 60.178123 638.975 59.69375Q640.6 59.209373 642.475 59.209373Q645.27185 59.209373 647.39685 60.021873Q649.52185 60.81875 650.5375 62.209373Q651.5531 63.584373 651.9281 65.89687L647.975 66.44375Q647.70935 64.6 646.4125 63.56875Q645.1156 62.5375 642.7562 62.5375Q639.975 62.5375 638.7875 63.459373Q637.6 64.36562 637.6 65.61562Q637.6 66.39687 638.08435 67.02187Q638.58435 67.67812 639.64685 68.1Q640.2406 68.31875 643.20935 69.13125Q647.5062 70.2875 649.1937 71.02187Q650.89685 71.74062 651.85 73.13125Q652.8187 74.52187 652.8187 76.58437Q652.8187 78.61562 651.64685 80.39687Q650.475 82.17812 648.2406 83.1625Q646.02185 84.14687 643.20935 84.14687Q638.5687 84.14687 636.1312 82.20937Q633.6937 80.27187 633.02185 76.475ZM670.6625 55.31875L670.6625 50.678123L674.6937 50.678123L674.6937 55.31875L670.6625 55.31875ZM670.6625 83.6L670.6625 59.740623L674.6937 59.740623L674.6937 83.6L670.6625 83.6ZM679.02185 76.475L683.0062 75.85Q683.35 78.25625 684.8812 79.5375Q686.4281 80.81875 689.1937 80.81875Q691.975 80.81875 693.3187 79.69375Q694.6781 78.55312 694.6781 77.02187Q694.6781 75.64687 693.475 74.86562Q692.64685 74.31875 689.35 73.49062Q684.89685 72.36562 683.1781 71.55312Q681.45935 70.725 680.5687 69.2875Q679.6937 67.83437 679.6937 66.08437Q679.6937 64.49062 680.4125 63.13125Q681.14685 61.771873 682.4125 60.865623Q683.35 60.178123 684.975 59.69375Q686.6 59.209373 688.475 59.209373Q691.27185 59.209373 693.39685 60.021873Q695.52185 60.81875 696.5375 62.209373Q697.5531 63.584373 697.9281 65.89687L693.975 66.44375Q693.70935 64.6 692.4125 63.56875Q691.1156 62.5375 688.7562 62.5375Q685.975 62.5375 684.7875 63.459373Q683.6 64.36562 683.6 65.61562Q683.6 66.39687 684.08435 67.02187Q684.58435 67.67812 685.64685 68.1Q686.2406 68.31875 689.20935 69.13125Q693.5062 70.2875 695.1937 71.02187Q696.89685 71.74062 697.85 73.13125Q698.8187 74.52187 698.8187 76.58437Q698.8187 78.61562 697.64685 80.39687Q696.475 82.17812 694.2406 83.1625Q692.02185 84.14687 689.20935 84.14687Q684.5687 84.14687 682.1312 82.20937Q679.6937 80.27187 679.02185 76.475ZM716.975 83.6L716.975 50.678123L729.3187 50.678123Q733.1 50.678123 735.3812 51.678123Q737.6625 52.678123 738.9437 54.75625Q740.2406 56.81875 740.2406 59.1Q740.2406 61.209373 739.08435 63.06875Q737.9437 64.92812 735.6312 66.08437Q738.6156 66.95937 740.225 69.06875Q741.83435 71.17812 741.83435 74.05312Q741.83435 76.36562 740.85 78.36562Q739.8812 80.35 738.4437 81.42812Q737.0062 82.50625 734.83435 83.05312Q732.6625 83.6 729.52185 83.6L716.975 83.6ZM721.33435 64.50625L728.4437 64.50625Q731.35 64.50625 732.6 64.13125Q734.27185 63.63125 735.1 62.490623Q735.9437 61.334373 735.9437 59.615623Q735.9437 57.975 735.1625 56.725Q734.3812 55.475 732.9125 55.021873Q731.45935 54.553123 727.9125 54.553123L721.33435 54.553123L721.33435 64.50625ZM721.33435 79.70937L729.52185 79.70937Q731.6312 79.70937 732.4906 79.55312Q733.9906 79.2875 735.0062 78.6625Q736.02185 78.02187 736.6625 76.83437Q737.3187 75.63125 737.3187 74.05312Q737.3187 72.20937 736.3656 70.85Q735.4281 69.49062 733.7562 68.94375Q732.08435 68.39687 728.9437 68.39687L721.33435 68.39687L721.33435 79.70937ZM763.95935 75.9125L768.14685 76.42812Q767.14685 80.1 764.475 82.13125Q761.8031 84.14687 757.64685 84.14687Q752.4125 84.14687 749.35 80.92812Q746.2875 77.69375 746.2875 71.88125Q746.2875 65.85 749.3812 62.5375Q752.4906 59.209373 757.4281 59.209373Q762.20935 59.209373 765.2406 62.475Q768.27185 65.725 768.27185 71.63125Q768.27185 71.99062 768.2562 72.70937L750.45935 72.70937Q750.6937 76.63125 752.6781 78.725Q754.6781 80.81875 757.6781 80.81875Q759.89685 80.81875 761.45935 79.64687Q763.0375 78.475 763.95935 75.9125ZM750.6937 69.38125L764.0062 69.38125Q763.7406 66.36562 762.475 64.86562Q760.5531 62.5375 757.475 62.5375Q754.6781 62.5375 752.7875 64.39687Q750.89685 66.25625 750.6937 69.38125ZM782.45935 79.99062L783.0375 83.55312Q781.33435 83.9125 779.9906 83.9125Q777.7875 83.9125 776.5687 83.225Q775.3656 82.52187 774.8656 81.39687Q774.3812 80.25625 774.3812 76.61562L774.3812 62.896873L771.4125 62.896873L771.4125 59.740623L774.3812 59.740623L774.3812 53.834373L778.39685 51.4125L778.39685 59.740623L782.45935 59.740623L782.45935 62.896873L778.39685 62.896873L778.39685 76.83437Q778.39685 78.56875 778.6 79.06875Q778.8187 79.55312 779.3031 79.85Q779.7875 80.14687 780.6781 80.14687Q781.3656 80.14687 782.45935 79.99062ZM795.45935 79.99062L796.0375 83.55312Q794.33435 83.9125 792.9906 83.9125Q790.7875 83.9125 789.5687 83.225Q788.3656 82.52187 787.8656 81.39687Q787.3812 80.25625 787.3812 76.61562L787.3812 62.896873L784.4125 62.896873L784.4125 59.740623L787.3812 59.740623L787.3812 53.834373L791.39685 51.4125L791.39685 59.740623L795.45935 59.740623L795.45935 62.896873L791.39685 62.896873L791.39685 76.83437Q791.39685 78.56875 791.6 79.06875Q791.8187 79.55312 792.3031 79.85Q792.7875 80.14687 793.6781 80.14687Q794.3656 80.14687 795.45935 79.99062ZM815.95935 75.9125L820.14685 76.42812Q819.14685 80.1 816.475 82.13125Q813.8031 84.14687 809.64685 84.14687Q804.4125 84.14687 801.35 80.92812Q798.2875 77.69375 798.2875 71.88125Q798.2875 65.85 801.3812 62.5375Q804.4906 59.209373 809.4281 59.209373Q814.20935 59.209373 817.2406 62.475Q820.27185 65.725 820.27185 71.63125Q820.27185 71.99062 820.2562 72.70937L802.45935 72.70937Q802.6937 76.63125 804.6781 78.725Q806.6781 80.81875 809.6781 80.81875Q811.89685 80.81875 813.45935 79.64687Q815.0375 78.475 815.95935 75.9125ZM802.6937 69.38125L816.0062 69.38125Q815.7406 66.36562 814.475 64.86562Q812.5531 62.5375 809.475 62.5375Q806.6781 62.5375 804.7875 64.39687Q802.89685 66.25625 802.6937 69.38125ZM825.58435 83.6L825.58435 59.740623L829.225 59.740623L829.225 63.365623Q830.6156 60.81875 831.7875 60.021873Q832.975 59.209373 834.39685 59.209373Q836.4437 59.209373 838.5531 60.50625L837.1625 64.25625Q835.6781 63.38125 834.1937 63.38125Q832.8656 63.38125 831.8031 64.17812Q830.7562 64.975 830.3031 66.39687Q829.6312 68.55312 829.6312 71.11562L829.6312 83.6L825.58435 83.6ZM843.2875 93.2875L840.3812 93.2875Q847.1 82.50625 847.1 71.69375Q847.1 67.475 846.1312 63.31875Q845.3656 59.94375 844.0062 56.85Q843.1312 54.834373 840.3812 50.115623L843.2875 50.115623Q847.5062 55.740623 849.52185 61.428123Q851.2562 66.33437 851.2562 71.67812Q851.2562 77.74062 848.9281 83.39687Q846.6 89.05312 843.2875 93.2875Z" fill-rule="nonzero"/></svg>